<?xml version="1.0" encoding="UTF-8"?>
<svg id="a" data-name="图层 1" xmlns="http://www.w3.org/2000/svg" viewBox="0 0 253.83 22">
  <defs>
    <style>
      .b {
        fill: #000000;
      }

      .c {
        opacity: .82;
      }

      .d {
        opacity: .4;
      }
      @media (prefers-color-scheme: dark) {
        .b {
          fill: #ffffff;
        }
      }
    </style>
  </defs>
  <g class="d">
    <path class="b" d="M242.81,5.53l.44.28c.09.06.14.11.14.21,0,.06-.01.12-.06.2-.68,1.2-1.19,2.65-1.19,4.42,0,2.28.84,3.71,1.14,4.33.07.13.11.23.11.29,0,.09-.06.14-.14.2l-.44.29c-.88-1.36-1.51-2.92-1.51-5.1s.63-3.76,1.51-5.1Z"/>
    <path class="b" d="M244.47,13.4c0-.19.09-.32.19-.42l2.53-2.55c.75-.76,1.4-1.47,1.4-2.46,0-.88-.55-1.39-1.42-1.39s-1.37.5-1.52,1.18c-.07.2-.18.31-.4.31-.05,0-.61-.1-.61-.1.19-1.35,1.06-2.23,2.58-2.23,1.62,0,2.38,1.07,2.38,2.2s-.73,1.92-1.65,2.86l-2.08,2.14c.27-.08.55-.13.88-.13h2.65c.21,0,.34.12.34.33v.6h-5.28v-.33Z"/>
    <path class="b" d="M250.96,15.06c.69-1.2,1.19-2.65,1.19-4.42s-.51-3.23-1.19-4.42c-.03-.06-.05-.13-.05-.2,0-.04,0-.12.13-.21l.43-.28c.89,1.36,1.54,2.92,1.54,5.1s-.65,3.74-1.54,5.1l-.43-.29c-.09-.05-.13-.11-.13-.2,0-.06.02-.12.05-.2Z"/>
  </g>
  <g class="c">
    <path class="b" d="M12.7,5.75h2.76c1.67,0,2.94.51,2.94,2.13,0,.98-.66,1.46-1.41,1.72,1.09.25,1.63.85,1.63,1.79,0,1.65-1.39,2.34-2.89,2.34h-3.03v-7.98ZM15.37,9.2c.92,0,1.55-.28,1.55-1.15s-.53-1.16-1.46-1.16h-1.27v2.31h1.18ZM15.69,12.57c.89,0,1.47-.36,1.47-1.23s-.63-1.12-1.48-1.12h-1.49v2.34h1.5Z"/>
    <path class="b" d="M21.51,5.53l.44.28c.09.06.14.11.14.21,0,.06-.01.12-.06.2-.68,1.2-1.19,2.65-1.19,4.42,0,2.28.84,3.71,1.14,4.33.07.13.11.23.11.29,0,.09-.06.14-.14.2l-.44.29c-.88-1.36-1.51-2.92-1.51-5.1s.63-3.76,1.51-5.1Z"/>
    <path class="b" d="M23.12,8.35l.86-.12.42-1.72c.02-.11.09-.19.22-.19h.52l-.23,1.93h1.46l-.08.71h-1.47l-.35,2.75c-.03.28-.07.51-.07.7,0,.42.15.61.49.61.4,0,.55-.26.67-.26.08,0,.1.04.12.1l.21.46c-.31.28-.77.51-1.31.51-.72,0-1.15-.4-1.15-1.26,0-.31.04-.47.08-.79l.34-2.8h-.62c-.1,0-.15-.07-.15-.17,0-.04.04-.44.04-.44Z"/>
    <path class="b" d="M27.69,15.06c.69-1.2,1.19-2.65,1.19-4.42s-.51-3.23-1.19-4.42c-.03-.06-.06-.13-.06-.2,0-.04,0-.12.13-.21l.43-.28c.9,1.36,1.54,2.92,1.54,5.1s-.65,3.74-1.54,5.1l-.43-.29c-.09-.06-.13-.11-.13-.2,0-.06.02-.12.06-.2Z"/>
    <path class="b" d="M34.1,9.17h6.51v.73h-6.51v-.73ZM34.1,11.38h6.51v.73h-6.51v-.73Z"/>
    <path class="b" d="M45.3,11.53c.14,0,.26.06.32.19.29.66.7,1.26,1.68,1.26,1.19,0,1.67-.85,1.67-1.49,0-1.16-.82-1.46-2.02-1.46v-.72c1.06,0,1.87-.36,1.87-1.39,0-.87-.53-1.35-1.4-1.35s-1.37.49-1.52,1.18c-.07.2-.17.31-.39.31-.03,0-.62-.1-.62-.1.08-.54.49-2.23,2.58-2.23,1.6,0,2.31,1.04,2.31,2.02,0,1.05-.59,1.55-1.37,1.82.92.23,1.55.79,1.55,1.88,0,1.61-1.36,2.36-2.63,2.36-1.87,0-2.35-1.07-2.68-2.06.5-.21.59-.22.66-.22Z"/>
    <path class="b" d="M51.15,8.35l.86-.12.42-1.72c.02-.11.09-.19.22-.19h.52l-.23,1.93h1.46l-.08.71h-1.47l-.35,2.75c-.03.28-.07.51-.07.7,0,.42.15.61.49.61.4,0,.55-.26.67-.26.08,0,.1.04.12.1l.21.46c-.31.28-.77.51-1.31.51-.72,0-1.15-.4-1.15-1.26,0-.31.04-.47.08-.79l.34-2.8h-.62c-.1,0-.15-.07-.15-.17,0-.04.04-.44.04-.44Z"/>
    <path class="b" d="M57.51,5.53l.44.28c.09.06.14.11.14.21,0,.06-.01.12-.06.2-.69,1.2-1.19,2.65-1.19,4.42,0,2.28.84,3.71,1.14,4.33.07.13.11.23.11.29,0,.09-.06.14-.14.2l-.44.29c-.88-1.36-1.51-2.92-1.51-5.1s.63-3.76,1.51-5.1Z"/>
    <path class="b" d="M61.8,5.8h.79v7.18h1.56v.75h-4.24v-.75h1.69v-5.39c0-.17.01-.33.02-.5l-1.41,1.2c-.06.06-.13.08-.21.08-.1,0-.21-.03-.25-.11l-.31-.43,2.36-2.03Z"/>
    <path class="b" d="M68.07,10.27h6.15v.73h-6.15v-.73Z"/>
    <path class="b" d="M77.95,8.35l.86-.12.42-1.72c.02-.11.09-.19.22-.19h.52l-.23,1.93h1.46l-.08.71h-1.47l-.35,2.75c-.03.28-.07.51-.07.7,0,.42.15.61.49.61.4,0,.55-.26.67-.26.08,0,.1.04.12.1l.21.46c-.31.28-.77.51-1.31.51-.72,0-1.15-.4-1.15-1.26,0-.31.04-.47.08-.79l.34-2.8h-.62c-.1,0-.15-.07-.15-.17,0-.04.04-.44.04-.44Z"/>
    <path class="b" d="M82.41,15.06c.69-1.2,1.19-2.65,1.19-4.42s-.51-3.23-1.19-4.42c-.03-.06-.06-.13-.06-.2,0-.04,0-.12.13-.21l.43-.28c.9,1.36,1.54,2.92,1.54,5.1s-.65,3.74-1.54,5.1l-.43-.29c-.09-.06-.13-.11-.13-.2,0-.06.02-.12.06-.2Z"/>
    <path class="b" d="M85.66,8.92c0-.13.07-.24.14-.31l1.67-1.7c.56-.57.92-1.02.92-1.62,0-.56-.33-.89-.89-.89-.53,0-.86.31-.97.74-.05.15-.12.23-.28.23-.04,0-.48-.08-.48-.08.1-.73.58-1.52,1.77-1.52,1.06,0,1.63.68,1.63,1.5s-.48,1.29-1.1,1.93l-1.33,1.37c.19-.05.39-.1.63-.1h1.64c.16,0,.26.1.26.25v.45h-3.6v-.25Z"/>
    <path class="b" d="M91.23,5.75h2.61c1.83,0,3.09.76,3.09,2.55,0,1.89-1.47,2.63-3.09,2.63h-1.12v2.8h-1.49v-7.98ZM93.84,9.76c1,0,1.61-.46,1.61-1.46s-.62-1.4-1.61-1.4h-1.12v2.86h1.12Z"/>
    <path class="b" d="M97.68,11.01h.62v4.79h1.02v.57h-2.89v-.57h1.12v-3.46c0-.12,0-.24.01-.36l-.89.76s-.1.06-.16.06c-.07,0-.16-.03-.19-.09l-.24-.33,1.61-1.38Z"/>
    <polygon class="b" points="103.49 10.28 106.37 10.28 106.37 7.39 107.1 7.39 107.1 10.28 109.98 10.28 109.98 11 107.1 11 107.1 13.89 106.37 13.89 106.37 11 103.49 11 103.49 10.28"/>
    <path class="b" d="M114.08,11.53c.14,0,.26.06.32.19.29.66.7,1.26,1.68,1.26,1.19,0,1.67-.85,1.67-1.49,0-1.16-.82-1.46-2.02-1.46v-.72c1.06,0,1.87-.36,1.87-1.39,0-.87-.53-1.35-1.4-1.35s-1.37.49-1.52,1.18c-.07.2-.17.31-.39.31-.03,0-.62-.1-.62-.1.08-.54.49-2.23,2.58-2.23,1.6,0,2.31,1.04,2.31,2.02,0,1.05-.59,1.55-1.37,1.82.92.23,1.55.79,1.55,1.88,0,1.61-1.36,2.36-2.63,2.36-1.87,0-2.35-1.07-2.68-2.06.5-.21.59-.22.66-.22Z"/>
    <path class="b" d="M119.93,8.35l.86-.12.42-1.72c.02-.11.09-.19.22-.19h.52l-.23,1.93h1.46l-.08.71h-1.47l-.35,2.75c-.03.28-.07.51-.07.7,0,.42.15.61.49.61.4,0,.55-.26.67-.26.08,0,.1.04.12.1l.21.46c-.31.28-.77.51-1.31.51-.72,0-1.15-.4-1.15-1.26,0-.31.04-.47.08-.79l.34-2.8h-.62c-.1,0-.15-.07-.15-.17,0-.04.04-.44.04-.44Z"/>
    <path class="b" d="M124.18,8.92c0-.13.07-.24.14-.31l1.67-1.7c.56-.57.92-1.02.92-1.62,0-.56-.33-.89-.89-.89-.53,0-.86.31-.97.74-.05.15-.12.23-.28.23-.04,0-.48-.08-.48-.08.1-.73.58-1.52,1.77-1.52,1.06,0,1.63.68,1.63,1.5s-.48,1.29-1.1,1.93l-1.33,1.37c.19-.05.39-.1.63-.1h1.64c.16,0,.26.1.26.25v.45h-3.6v-.25Z"/>
    <path class="b" d="M131.18,5.53l.44.28c.09.06.14.11.14.21,0,.06-.01.12-.06.2-.68,1.2-1.19,2.65-1.19,4.42,0,2.28.84,3.71,1.14,4.33.07.13.11.23.11.29,0,.09-.06.14-.14.2l-.44.29c-.88-1.36-1.51-2.92-1.51-5.1s.63-3.76,1.51-5.1Z"/>
    <path class="b" d="M135.59,5.8h.79v7.18h1.56v.75h-4.24v-.75h1.69v-5.39c0-.17.01-.33.02-.5l-1.41,1.2c-.06.06-.13.08-.21.08-.1,0-.21-.03-.25-.11l-.31-.43,2.36-2.03Z"/>
    <path class="b" d="M141.86,10.27h6.15v.73h-6.15v-.73Z"/>
    <path class="b" d="M151.74,8.35l.86-.12.42-1.72c.02-.11.09-.19.22-.19h.52l-.23,1.93h1.46l-.08.71h-1.47l-.35,2.75c-.03.28-.07.51-.07.7,0,.42.15.61.49.61.4,0,.55-.26.67-.26.08,0,.1.04.12.1l.21.46c-.31.28-.77.51-1.31.51-.72,0-1.15-.4-1.15-1.26,0-.31.04-.47.08-.79l.34-2.8h-.62c-.1,0-.15-.07-.15-.17,0-.04.04-.44.04-.44Z"/>
    <path class="b" d="M156.33,15.06c.69-1.2,1.19-2.65,1.19-4.42s-.51-3.23-1.19-4.42c-.03-.06-.05-.13-.05-.2,0-.04,0-.12.13-.21l.43-.28c.89,1.36,1.54,2.92,1.54,5.1s-.65,3.75-1.54,5.1l-.43-.29c-.09-.06-.13-.11-.13-.2,0-.05.02-.12.05-.2Z"/>
    <path class="b" d="M160.01,5.75h2.61c1.83,0,3.09.76,3.09,2.55,0,1.89-1.47,2.63-3.09,2.63h-1.12v2.8h-1.49v-7.98ZM162.61,9.76c1,0,1.61-.46,1.61-1.46s-.62-1.4-1.61-1.4h-1.12v2.86h1.12Z"/>
    <path class="b" d="M164.61,16.12c0-.13.07-.24.14-.31l1.67-1.7c.56-.57.92-1.02.92-1.62,0-.56-.33-.89-.89-.89-.53,0-.86.31-.97.74-.05.15-.12.23-.28.23-.04,0-.48-.08-.48-.08.1-.73.58-1.52,1.77-1.52,1.06,0,1.63.68,1.63,1.5s-.48,1.29-1.1,1.93l-1.33,1.37c.19-.05.39-.1.63-.1h1.64c.16,0,.26.1.26.25v.45h-3.6v-.25Z"/>
    <polygon class="b" points="172.27 10.28 175.15 10.28 175.15 7.39 175.88 7.39 175.88 10.28 178.76 10.28 178.76 11 175.88 11 175.88 13.89 175.15 13.89 175.15 11 172.27 11 172.27 10.28"/>
    <path class="b" d="M182.32,8.35l.86-.12.42-1.72c.02-.11.09-.19.22-.19h.52l-.23,1.93h1.46l-.08.71h-1.47l-.35,2.75c-.03.28-.07.51-.07.7,0,.42.15.61.49.61.4,0,.55-.26.67-.26.08,0,.1.04.12.1l.21.46c-.31.28-.77.51-1.31.51-.72,0-1.15-.4-1.15-1.26,0-.31.04-.47.08-.79l.34-2.8h-.62c-.1,0-.15-.07-.15-.17,0-.04.04-.44.04-.44Z"/>
    <path class="b" d="M187.04,7.65c.1,0,.2.04.25.14.19.42.45.8,1.07.8.76,0,1.06-.55,1.06-.95,0-.75-.5-.95-1.32-.95v-.54c.7,0,1.22-.22,1.22-.89,0-.55-.33-.86-.89-.86s-.86.31-.97.74c-.05.15-.12.23-.28.23-.04,0-.48-.08-.48-.08.06-.42.36-1.52,1.77-1.52,1.05,0,1.59.66,1.59,1.37,0,.76-.44,1.06-.9,1.22.6.16,1.01.54,1.01,1.26,0,1.08-.89,1.61-1.79,1.61-1.21,0-1.6-.67-1.84-1.41.22-.09.42-.17.51-.17Z"/>
    <path class="b" d="M192.51,12.43c.45,0,.67.33.67.78,0,.94-.53,1.56-1.04,2.02l-.17-.17c-.06-.06-.08-.07-.08-.15,0-.07.03-.12.09-.14.5-.61.55-.85.57-1.04h-.07c-.4,0-.64-.29-.64-.68,0-.36.28-.62.65-.62Z"/>
    <path class="b" d="M196.2,8.35l.86-.12.42-1.72c.02-.11.09-.19.22-.19h.52l-.23,1.93h1.46l-.08.71h-1.47l-.35,2.75c-.03.28-.07.51-.07.7,0,.42.15.61.49.61.4,0,.55-.26.67-.26.08,0,.1.04.12.1l.21.46c-.31.28-.77.51-1.31.51-.72,0-1.15-.4-1.15-1.26,0-.31.04-.47.08-.79l.34-2.8h-.62c-.1,0-.15-.07-.15-.17,0-.04.04-.44.04-.44Z"/>
    <path class="b" d="M206.83,7.57h3.25v.73h-3.2c-1.14,0-2.09.94-2.27,1.99h5.48v.73h-5.49c.19,1.05,1.14,1.99,2.27,1.99h3.21v.73h-3.21c-1.77,0-3.03-1.45-3.03-3.08s1.24-3.08,2.99-3.08Z"/>
    <path class="b" d="M214.91,5.62h2.03v.27c0,.15-.11.27-.28.27h-.98v8.99h.98c.15,0,.28.11.28.27v.26h-2.03V5.62Z"/>
    <path class="b" d="M220.64,5.74c1.62,0,2.87,1.27,2.87,4.04s-1.37,4.04-2.87,4.04c-1.68,0-2.87-1.34-2.87-4.04s1.25-4.04,2.87-4.04ZM220.64,12.98c1.57,0,1.85-1.87,1.85-3.2,0-1.24-.25-3.21-1.85-3.21s-1.85,1.92-1.85,3.21c0,.76.07,3.2,1.85,3.2Z"/>
    <path class="b" d="M225.07,12.43c.45,0,.67.33.67.78,0,.94-.53,1.56-1.04,2.02l-.17-.17c-.06-.06-.08-.07-.08-.15,0-.07.03-.12.09-.14.5-.61.55-.85.57-1.04h-.07c-.4,0-.64-.29-.64-.68,0-.36.28-.62.65-.62Z"/>
    <path class="b" d="M229.59,5.8h.79v7.18h1.56v.75h-4.24v-.75h1.69v-5.39c0-.17.01-.33.02-.5l-1.41,1.2c-.06.06-.13.08-.21.08-.1,0-.21-.03-.25-.11l-.31-.43,2.36-2.03Z"/>
    <path class="b" d="M233.59,15.13h.98V6.15h-.98c-.15,0-.28-.11-.28-.26v-.27h2.03v10.05h-2.03v-.26c0-.15.11-.27.28-.27Z"/>
  </g>
</svg>