<?xml version="1.0" encoding="UTF-8"?>
<svg id="a" data-name="图层 1" xmlns="http://www.w3.org/2000/svg" viewBox="0 0 253.83 27.56">
  <defs>
    <style>
      .b {
        fill: #000;
        opacity: .82;
      }

      .c {
        opacity: .4;
      }
      @media (prefers-color-scheme: dark) {
        .b {
          fill: #ffffff;
        }
      }
    </style>
  </defs>
  <g class="c">
    <path class="b" d="M242.81,8.31l.44.28c.09.06.14.11.14.21,0,.06-.01.12-.06.2-.68,1.2-1.19,2.65-1.19,4.42,0,2.28.84,3.71,1.14,4.33.07.13.11.23.11.29,0,.09-.06.14-.14.2l-.44.29c-.88-1.36-1.51-2.92-1.51-5.1s.63-3.76,1.51-5.1Z"/>
    <path class="b" d="M247.92,8.6h.92v5.06h1.2v.55c0,.13-.09.22-.22.22h-.98v2.08h-.86v-2.08h-3.51c-.14,0-.28-.1-.3-.22l-.09-.51,3.84-5.1ZM247.98,13.66v-3.27c0-.22.02-.45.04-.66l-2.88,3.93h2.84Z"/>
    <path class="b" d="M250.96,17.84c.69-1.2,1.19-2.65,1.19-4.42s-.51-3.23-1.19-4.42c-.03-.06-.05-.13-.05-.2,0-.04,0-.12.13-.21l.43-.28c.89,1.36,1.54,2.92,1.54,5.1s-.65,3.74-1.54,5.1l-.43-.29c-.09-.05-.13-.11-.13-.2,0-.06.02-.12.05-.2Z"/>
  </g>
  <g>
    <path class="b" d="M71.2,12.94c.68,0,.95-.41.95-1.32v-5.56c0-1.23.57-1.78,2.13-1.78v.82c-.81,0-1.14.26-1.14.85v5.77c0,1.08-.38,1.45-.95,1.65.57.2.95.56.95,1.65v5.77c0,.59.33.85,1.14.85v.82c-1.56,0-2.13-.56-2.13-1.78v-5.56c0-.92-.26-1.32-.95-1.32v-.84Z"/>
    <path class="b" d="M76.03,4.87c.17,0,.21.08.25.2l.89,3.52c.03.14.07.3.08.46.07-.15.13-.34.21-.47l1.77-3.52c.06-.1.15-.19.29-.19h.77l-3.78,7.25c-.08.12-.15.23-.34.23h-.72l1.21-2.23-1.46-5.26h.82Z"/>
    <path class="b" d="M84.55,5.89h6.51v.73h-6.51v-.73ZM84.55,8.1h6.51v.73h-6.51v-.73Z"/>
    <path class="b" d="M97.82,2.46c1.62,0,2.87,1.27,2.87,4.04s-1.37,4.04-2.87,4.04c-1.68,0-2.87-1.34-2.87-4.04s1.25-4.04,2.87-4.04ZM97.82,9.7c1.57,0,1.85-1.87,1.85-3.2,0-1.24-.25-3.21-1.85-3.21s-1.85,1.92-1.85,3.21c0,.76.07,3.2,1.85,3.2Z"/>
    <path class="b" d="M102.24,9.15c.45,0,.67.33.67.78,0,.94-.53,1.56-1.04,2.02l-.17-.17c-.06-.06-.08-.07-.08-.15,0-.07.03-.12.09-.14.5-.61.55-.85.57-1.04h-.07c-.4,0-.64-.29-.64-.68,0-.36.28-.62.65-.62Z"/>
    <path class="b" d="M127.87,7.45l-1.34-2.58h.87c.14,0,.2.03.24.13l.94,1.92.13-.23,1.27-1.67c.07-.09.13-.15.23-.15h.88l-1.99,2.58,1.48,3h-.87c-.15,0-.22-.09-.28-.2l-1.05-2.23c-.03.08-.08.14-.12.21l-1.52,2.03c-.08.09-.14.19-.29.19h-.86l2.26-3Z"/>
    <path class="b" d="M138.48,4.29h3.25v.73h-3.2c-1.14,0-2.09.94-2.27,1.99h5.48v.73h-5.49c.19,1.05,1.14,1.99,2.27,1.99h3.21v.73h-3.21c-1.77,0-3.03-1.45-3.03-3.08s1.24-3.08,2.99-3.08Z"/>
    <path class="b" d="M147.79,2.26l.44.28c.09.06.14.11.14.21,0,.06-.01.12-.06.2-.68,1.2-1.19,2.65-1.19,4.42,0,2.28.84,3.71,1.14,4.33.07.13.11.23.11.29,0,.09-.06.14-.14.2l-.44.29c-.88-1.36-1.51-2.92-1.51-5.1s.63-3.76,1.51-5.1Z"/>
    <path class="b" d="M149.59,7h6.15v.73h-6.15v-.73Z"/>
    <path class="b" d="M158.88,5.45c1,0,1.8.82,2.19,1.56.47-.73,1.23-1.56,2.2-1.56,1.24,0,2.02,1,2.02,2.21,0,1.45-1.03,2.22-2.02,2.22-1.08,0-1.72-.83-2.2-1.53-.46.74-1.13,1.53-2.19,1.53-1.24,0-2.02-1.05-2.02-2.22,0-1.47,1.05-2.21,2.02-2.21ZM158.94,9.1c.63,0,1.2-.57,1.71-1.44-.28-.46-.88-1.42-1.71-1.42s-1.32.57-1.32,1.42.49,1.44,1.32,1.44ZM163.22,9.1c.83,0,1.29-.6,1.29-1.44s-.46-1.42-1.29-1.42c-.76,0-1.16.57-1.72,1.42.47.75.97,1.44,1.72,1.44Z"/>
    <path class="b" d="M166.94,9.15c.45,0,.67.33.67.78,0,.94-.53,1.56-1.04,2.02l-.17-.17c-.06-.06-.08-.07-.08-.15,0-.07.03-.12.09-.14.5-.61.55-.85.57-1.04h-.07c-.4,0-.64-.29-.64-.68,0-.36.28-.62.65-.62Z"/>
    <path class="b" d="M173.22,2.46c1.62,0,2.87,1.27,2.87,4.04s-1.37,4.04-2.87,4.04c-1.68,0-2.87-1.34-2.87-4.04s1.25-4.04,2.87-4.04ZM173.22,9.7c1.57,0,1.85-1.87,1.85-3.2,0-1.24-.25-3.21-1.85-3.21s-1.85,1.92-1.85,3.21c0,.76.07,3.2,1.85,3.2Z"/>
    <path class="b" d="M177.02,11.78c.69-1.2,1.19-2.65,1.19-4.42s-.51-3.23-1.19-4.42c-.03-.06-.05-.13-.05-.2,0-.04,0-.12.13-.21l.43-.28c.89,1.36,1.54,2.92,1.54,5.1s-.65,3.75-1.54,5.1l-.43-.29c-.09-.06-.13-.11-.13-.2,0-.06.02-.12.05-.2Z"/>
    <path class="b" d="M76.03,16.87c.17,0,.21.08.25.2l.89,3.52c.03.14.07.3.08.46.07-.15.13-.34.21-.47l1.77-3.52c.06-.1.15-.19.29-.19h.77l-3.78,7.25c-.08.12-.15.23-.34.23h-.72l1.21-2.23-1.46-5.26h.82Z"/>
    <path class="b" d="M84.55,17.89h6.51v.73h-6.51v-.73ZM84.55,20.1h6.51v.73h-6.51v-.73Z"/>
    <path class="b" d="M97.88,14.53h.79v7.18h1.56v.75h-4.24v-.75h1.69v-5.39c0-.17.01-.33.02-.5l-1.41,1.2c-.06.06-.13.08-.21.08-.1,0-.21-.03-.25-.11l-.31-.43,2.36-2.03Z"/>
    <path class="b" d="M102.24,21.15c.45,0,.67.33.67.78,0,.94-.53,1.56-1.04,2.02l-.17-.17c-.06-.06-.08-.07-.08-.15,0-.07.03-.12.09-.14.5-.61.55-.85.57-1.04h-.07c-.4,0-.64-.29-.64-.68,0-.36.28-.62.65-.62Z"/>
    <path class="b" d="M127.87,19.45l-1.34-2.58h.87c.14,0,.2.03.24.13l.94,1.92.13-.23,1.27-1.67c.07-.09.13-.15.23-.15h.88l-1.99,2.58,1.48,3h-.87c-.15,0-.22-.09-.28-.2l-1.05-2.23c-.03.08-.08.14-.12.21l-1.52,2.03c-.08.09-.14.19-.29.19h-.86l2.26-3Z"/>
    <path class="b" d="M138.48,16.29h3.25v.73h-3.2c-1.14,0-2.09.94-2.27,1.99h5.48v.73h-5.49c.19,1.05,1.14,1.99,2.27,1.99h3.21v.73h-3.21c-1.77,0-3.03-1.45-3.03-3.08s1.24-3.08,2.99-3.08Z"/>
    <path class="b" d="M147.79,14.26l.44.28c.09.06.14.11.14.21,0,.06-.01.12-.06.2-.68,1.2-1.19,2.65-1.19,4.42,0,2.28.84,3.71,1.14,4.33.07.13.11.23.11.29,0,.09-.06.14-.14.2l-.44.29c-.88-1.36-1.51-2.92-1.51-5.1s.63-3.76,1.51-5.1Z"/>
    <path class="b" d="M152.15,14.53h.79v7.18h1.56v.75h-4.24v-.75h1.69v-5.39c0-.17.01-.33.02-.5l-1.41,1.2c-.06.06-.13.08-.21.08-.1,0-.21-.03-.25-.11l-.31-.43,2.36-2.03Z"/>
    <path class="b" d="M156.51,21.15c.45,0,.67.33.67.78,0,.94-.53,1.56-1.04,2.02l-.17-.17c-.06-.06-.08-.07-.08-.15,0-.07.03-.12.09-.14.5-.61.55-.85.57-1.04h-.07c-.4,0-.64-.29-.64-.68,0-.36.28-.62.65-.62Z"/>
    <polygon class="b" points="160.12 19 163 19 163 16.12 163.73 16.12 163.73 19 166.62 19 166.62 19.73 163.73 19.73 163.73 22.61 163 22.61 163 19.73 160.12 19.73 160.12 19"/>
    <path class="b" d="M169.59,17.45c1,0,1.8.82,2.19,1.56.47-.73,1.23-1.56,2.2-1.56,1.24,0,2.02,1,2.02,2.21,0,1.45-1.03,2.22-2.02,2.22-1.08,0-1.72-.83-2.2-1.53-.46.74-1.13,1.53-2.19,1.53-1.24,0-2.02-1.05-2.02-2.22,0-1.47,1.05-2.21,2.02-2.21ZM169.65,21.1c.63,0,1.2-.57,1.71-1.44-.28-.46-.88-1.42-1.71-1.42s-1.32.57-1.32,1.42.49,1.44,1.32,1.44ZM173.93,21.1c.83,0,1.29-.6,1.29-1.44s-.46-1.42-1.29-1.42c-.76,0-1.16.57-1.72,1.42.47.75.97,1.44,1.72,1.44Z"/>
    <path class="b" d="M177.02,23.78c.69-1.2,1.19-2.65,1.19-4.42s-.51-3.23-1.19-4.42c-.03-.06-.05-.13-.05-.2,0-.04,0-.12.13-.21l.43-.28c.89,1.36,1.54,2.92,1.54,5.1s-.65,3.75-1.54,5.1l-.43-.29c-.09-.06-.13-.11-.13-.2,0-.05.02-.12.05-.2Z"/>
  </g>
</svg>