<?xml version="1.0" encoding="UTF-8"?>
<svg id="a" data-name="图层 1" xmlns="http://www.w3.org/2000/svg" viewBox="0 0 253.83 31.53">
  <defs>
    <style>
      .b {
        fill: #000;
        opacity: .82;
      }

      .c {
        opacity: .4;
      }
      @media (prefers-color-scheme: dark) {
        .b {
          fill: #fff;
        }
      }
    </style>
  </defs>
  <g class="c">
    <path class="b" d="M242.81,10.3l.44.28c.09.06.14.11.14.21,0,.06-.01.12-.06.2-.68,1.2-1.19,2.65-1.19,4.42,0,2.28.84,3.71,1.14,4.33.07.13.11.23.11.29,0,.09-.06.14-.14.2l-.44.29c-.88-1.36-1.51-2.92-1.51-5.1s.63-3.76,1.51-5.1Z"/>
    <path class="b" d="M245.08,16.3c.14,0,.26.06.32.19.29.66.7,1.26,1.68,1.26,1.19,0,1.67-.85,1.67-1.49,0-1.16-.82-1.46-2.02-1.46v-.72c1.06,0,1.87-.36,1.87-1.39,0-.87-.53-1.35-1.4-1.35s-1.37.49-1.52,1.18c-.07.2-.17.31-.39.31-.03,0-.62-.1-.62-.1.08-.54.49-2.23,2.58-2.23,1.6,0,2.31,1.04,2.31,2.02,0,1.05-.59,1.55-1.37,1.82.92.23,1.55.8,1.55,1.88,0,1.61-1.36,2.36-2.63,2.36-1.87,0-2.35-1.07-2.68-2.07.5-.21.59-.22.66-.22Z"/>
    <path class="b" d="M250.96,19.82c.69-1.2,1.19-2.65,1.19-4.42s-.51-3.23-1.19-4.42c-.03-.06-.05-.13-.05-.2,0-.04,0-.12.13-.21l.43-.28c.89,1.36,1.54,2.92,1.54,5.1s-.65,3.74-1.54,5.1l-.43-.29c-.09-.05-.13-.11-.13-.2,0-.06.02-.12.05-.2Z"/>
  </g>
  <g>
    <path class="b" d="M12.61,14.97c.73,0,1.04-.49,1.04-1.56v-7.07c0-1.26.59-1.85,2.19-1.85v.84c-.84,0-1.18.3-1.18.91v7.29c0,1.21-.41,1.66-1,1.88.6.21,1,.65,1,1.87v7.29c0,.61.34.91,1.18.91v.84c-1.6,0-2.19-.6-2.19-1.85v-7.07c0-1.07-.31-1.56-1.04-1.56v-.85Z"/>
    <path class="b" d="M18.92,9.48l-1.34-2.58h.87c.14,0,.2.03.24.13l.94,1.92.13-.23,1.27-1.67c.07-.09.13-.15.23-.15h.88l-1.99,2.58,1.48,3h-.87c-.15,0-.22-.09-.28-.2l-1.05-2.23c-.03.08-.08.14-.12.21l-1.52,2.03c-.08.09-.14.19-.29.19h-.86l2.26-3Z"/>
    <path class="b" d="M26.41,7.93h6.51v.73h-6.51v-.73ZM26.41,10.13h6.51v.73h-6.51v-.73Z"/>
    <path class="b" d="M37.61,10.29c.14,0,.26.06.32.19.29.66.7,1.26,1.68,1.26,1.19,0,1.67-.85,1.67-1.49,0-1.16-.82-1.46-2.02-1.46v-.72c1.06,0,1.87-.36,1.87-1.39,0-.87-.53-1.35-1.4-1.35s-1.37.49-1.52,1.18c-.07.2-.17.31-.39.31-.03,0-.62-.1-.62-.1.08-.54.49-2.23,2.58-2.23,1.6,0,2.31,1.04,2.31,2.02,0,1.05-.59,1.55-1.37,1.82.92.23,1.55.79,1.55,1.88,0,1.61-1.36,2.36-2.63,2.36-1.87,0-2.35-1.07-2.68-2.06.5-.21.59-.22.66-.22Z"/>
    <path class="b" d="M43.46,7.11l.86-.12.42-1.72c.02-.11.09-.19.22-.19h.52l-.23,1.93h1.46l-.08.71h-1.47l-.35,2.75c-.03.28-.07.51-.07.7,0,.42.15.61.49.61.4,0,.55-.27.67-.27.08,0,.1.04.12.1l.21.46c-.31.28-.77.51-1.31.51-.72,0-1.15-.4-1.15-1.26,0-.31.04-.47.08-.79l.34-2.8h-.62c-.1,0-.15-.07-.15-.17,0-.04.04-.44.04-.44Z"/>
    <path class="b" d="M49.79,4.29l.44.28c.09.06.14.11.14.21,0,.06-.01.12-.06.2-.68,1.2-1.19,2.65-1.19,4.42,0,2.28.84,3.71,1.14,4.33.07.13.11.23.11.29,0,.09-.06.14-.14.2l-.44.29c-.88-1.36-1.51-2.92-1.51-5.1s.63-3.76,1.51-5.1Z"/>
    <path class="b" d="M54.11,4.56h.79v7.18h1.56v.75h-4.24v-.75h1.69v-5.39c0-.17.01-.33.02-.5l-1.41,1.2c-.06.06-.13.08-.21.08-.1,0-.21-.03-.25-.11l-.31-.43,2.36-2.03Z"/>
    <path class="b" d="M60.38,9.03h6.15v.73h-6.15v-.73Z"/>
    <path class="b" d="M70.26,7.11l.86-.12.42-1.72c.02-.11.09-.19.22-.19h.52l-.23,1.93h1.46l-.08.71h-1.47l-.35,2.75c-.03.28-.07.51-.07.7,0,.42.15.61.49.61.4,0,.55-.27.67-.27.08,0,.1.04.12.1l.21.46c-.31.28-.77.51-1.31.51-.72,0-1.15-.4-1.15-1.26,0-.31.04-.47.08-.79l.34-2.8h-.62c-.1,0-.15-.07-.15-.17,0-.04.04-.44.04-.44Z"/>
    <path class="b" d="M74.69,13.81c.69-1.2,1.19-2.65,1.19-4.42s-.51-3.23-1.19-4.42c-.03-.06-.06-.13-.06-.2,0-.04,0-.12.13-.21l.43-.28c.9,1.36,1.54,2.92,1.54,5.1s-.65,3.75-1.54,5.1l-.43-.29c-.09-.06-.13-.11-.13-.2,0-.06.02-.12.06-.2Z"/>
    <path class="b" d="M77.97,7.68c0-.13.07-.24.14-.31l1.67-1.7c.56-.57.92-1.02.92-1.62,0-.56-.33-.89-.89-.89-.53,0-.86.31-.97.74-.05.15-.12.23-.28.23-.04,0-.48-.08-.48-.08.1-.73.58-1.52,1.77-1.52,1.06,0,1.63.68,1.63,1.5s-.48,1.29-1.1,1.93l-1.33,1.37c.19-.05.39-.1.63-.1h1.64c.16,0,.26.1.26.25v.45h-3.6v-.25Z"/>
    <path class="b" d="M86.69,8.72c.35,0,.65.31.65.66s-.3.66-.65.66-.67-.33-.67-.66.31-.66.67-.66Z"/>
    <path class="b" d="M93.89,4.49c1.62,0,2.87,1.27,2.87,4.04s-1.37,4.04-2.87,4.04c-1.68,0-2.87-1.34-2.87-4.04s1.25-4.04,2.87-4.04ZM93.89,11.74c1.57,0,1.85-1.87,1.85-3.2,0-1.24-.25-3.21-1.85-3.21s-1.85,1.92-1.85,3.21c0,.76.07,3.2,1.85,3.2Z"/>
    <path class="b" d="M98.37,11.19c.4,0,.68.3.68.7s-.29.7-.68.7-.68-.29-.68-.7.28-.7.68-.7Z"/>
    <path class="b" d="M103.64,4.58h.92v5.06h1.2v.55c0,.13-.09.22-.22.22h-.98v2.08h-.86v-2.08h-3.51c-.14,0-.28-.1-.3-.22l-.09-.51,3.84-5.1ZM103.69,9.64v-3.27c0-.22.02-.45.04-.66l-2.88,3.93h2.84Z"/>
    <polygon class="b" points="109.02 9.03 111.9 9.03 111.9 6.15 112.63 6.15 112.63 9.03 115.51 9.03 115.51 9.76 112.63 9.76 112.63 12.64 111.9 12.64 111.9 9.76 109.02 9.76 109.02 9.03"/>
    <path class="b" d="M119.08,7.11l.86-.12.42-1.72c.02-.11.09-.19.22-.19h.52l-.23,1.93h1.46l-.08.71h-1.47l-.35,2.75c-.03.28-.07.51-.07.7,0,.42.15.61.49.61.4,0,.55-.27.67-.27.08,0,.1.04.12.1l.21.46c-.31.28-.77.51-1.31.51-.72,0-1.15-.4-1.15-1.26,0-.31.04-.47.08-.79l.34-2.8h-.62c-.1,0-.15-.07-.15-.17,0-.04.04-.44.04-.44Z"/>
    <path class="b" d="M123.8,6.41c.1,0,.2.04.25.14.19.42.45.8,1.07.8.76,0,1.06-.55,1.06-.95,0-.75-.5-.95-1.32-.95v-.54c.7,0,1.22-.22,1.22-.89,0-.55-.33-.86-.89-.86s-.86.31-.97.74c-.05.15-.12.23-.28.23-.04,0-.48-.08-.48-.08.06-.42.36-1.52,1.77-1.52,1.05,0,1.58.66,1.58,1.37,0,.76-.44,1.06-.9,1.22.6.16,1.01.54,1.01,1.26,0,1.08-.89,1.61-1.79,1.61-1.21,0-1.6-.67-1.84-1.41.22-.09.42-.17.51-.17Z"/>
    <path class="b" d="M18.73,20.82c.17,0,.21.08.25.2l.89,3.52c.03.14.07.3.08.46.07-.15.13-.34.21-.47l1.77-3.52c.06-.1.15-.19.29-.19h.77l-3.78,7.25c-.08.12-.15.23-.34.23h-.72l1.21-2.23-1.46-5.26h.82Z"/>
    <path class="b" d="M27.25,21.85h6.51v.73h-6.51v-.73ZM27.25,24.05h6.51v.73h-6.51v-.73Z"/>
    <path class="b" d="M38.45,24.21c.14,0,.26.06.32.19.29.66.7,1.26,1.68,1.26,1.19,0,1.67-.85,1.67-1.49,0-1.16-.82-1.46-2.02-1.46v-.72c1.06,0,1.87-.36,1.87-1.39,0-.87-.53-1.35-1.4-1.35s-1.37.49-1.52,1.18c-.07.2-.17.31-.39.31-.03,0-.62-.1-.62-.1.08-.54.49-2.23,2.58-2.23,1.6,0,2.31,1.04,2.31,2.02,0,1.05-.59,1.55-1.37,1.82.92.23,1.55.79,1.55,1.88,0,1.61-1.36,2.36-2.63,2.36-1.87,0-2.35-1.07-2.68-2.06.5-.21.59-.22.66-.22Z"/>
    <path class="b" d="M44.3,21.03l.86-.12.42-1.72c.02-.11.09-.19.22-.19h.52l-.23,1.93h1.46l-.08.71h-1.47l-.35,2.75c-.03.28-.07.51-.07.7,0,.42.15.61.49.61.4,0,.55-.26.67-.26.08,0,.1.04.12.1l.21.46c-.31.28-.77.51-1.31.51-.72,0-1.15-.4-1.15-1.26,0-.31.04-.47.08-.79l.34-2.8h-.62c-.1,0-.15-.07-.15-.17,0-.04.04-.44.04-.44Z"/>
    <path class="b" d="M50.51,18.21l.44.28c.09.05.14.11.14.21,0,.05-.01.12-.06.2-.68,1.2-1.19,2.65-1.19,4.42,0,2.28.84,3.71,1.14,4.33.07.13.11.23.11.29,0,.09-.06.14-.14.2l-.44.29c-.88-1.36-1.51-2.92-1.51-5.1s.63-3.76,1.51-5.1Z"/>
    <path class="b" d="M54.96,18.48h.79v7.18h1.56v.75h-4.24v-.75h1.69v-5.39c0-.17.01-.33.02-.5l-1.41,1.2c-.06.06-.13.08-.21.08-.1,0-.21-.03-.25-.11l-.31-.43,2.36-2.03Z"/>
    <path class="b" d="M61.22,22.95h6.15v.73h-6.15v-.73Z"/>
    <path class="b" d="M71.1,21.03l.86-.12.42-1.72c.02-.11.09-.19.22-.19h.52l-.23,1.93h1.46l-.08.71h-1.47l-.35,2.75c-.03.28-.07.51-.07.7,0,.42.15.61.49.61.4,0,.55-.26.67-.26.08,0,.1.04.12.1l.21.46c-.31.28-.77.51-1.31.51-.72,0-1.15-.4-1.15-1.26,0-.31.04-.47.08-.79l.34-2.8h-.62c-.1,0-.15-.07-.15-.17,0-.04.04-.44.04-.44Z"/>
    <path class="b" d="M75.65,27.73c.69-1.2,1.19-2.65,1.19-4.42s-.51-3.23-1.19-4.42c-.03-.05-.06-.13-.06-.2,0-.04,0-.12.13-.21l.43-.28c.9,1.36,1.54,2.92,1.54,5.1s-.65,3.75-1.54,5.1l-.43-.29c-.09-.05-.13-.11-.13-.2,0-.06.02-.12.06-.2Z"/>
    <path class="b" d="M78.82,21.36c0-.13.07-.24.14-.31l1.67-1.7c.56-.57.92-1.02.92-1.62,0-.56-.33-.89-.89-.89-.53,0-.86.31-.97.74-.05.15-.12.23-.28.23-.04,0-.48-.08-.48-.08.1-.73.58-1.52,1.77-1.52,1.06,0,1.63.68,1.63,1.5s-.48,1.29-1.1,1.93l-1.33,1.37c.19-.05.39-.1.63-.1h1.64c.16,0,.26.1.26.25v.45h-3.6v-.25Z"/>
    <path class="b" d="M87.54,22.64c.35,0,.65.31.65.66s-.3.66-.65.66-.67-.33-.67-.66.31-.66.67-.66Z"/>
    <path class="b" d="M94.74,18.41c1.62,0,2.87,1.27,2.87,4.04s-1.37,4.04-2.87,4.04c-1.68,0-2.87-1.34-2.87-4.04s1.25-4.04,2.87-4.04ZM94.74,25.66c1.57,0,1.85-1.87,1.85-3.2,0-1.24-.25-3.21-1.85-3.21s-1.85,1.92-1.85,3.21c0,.76.07,3.2,1.85,3.2Z"/>
    <path class="b" d="M99.22,25.11c.4,0,.68.3.68.7s-.29.7-.68.7-.68-.29-.68-.7.28-.7.68-.7Z"/>
    <path class="b" d="M101.03,26.08c0-.19.09-.32.19-.42l2.53-2.55c.75-.76,1.4-1.47,1.4-2.46,0-.88-.55-1.39-1.42-1.39s-1.37.5-1.52,1.18c-.07.2-.18.31-.4.31-.06,0-.61-.1-.61-.1.19-1.35,1.06-2.23,2.58-2.23,1.62,0,2.37,1.07,2.37,2.2s-.73,1.92-1.65,2.86l-2.08,2.14c.27-.08.55-.13.88-.13h2.65c.21,0,.34.12.34.33v.6h-5.28v-.33Z"/>
    <polygon class="b" points="109.86 22.95 112.75 22.95 112.75 20.07 113.48 20.07 113.48 22.95 116.36 22.95 116.36 23.68 113.48 23.68 113.48 26.56 112.75 26.56 112.75 23.68 109.86 23.68 109.86 22.95"/>
    <path class="b" d="M120.45,24.21c.14,0,.26.06.32.19.29.66.7,1.26,1.68,1.26,1.19,0,1.67-.85,1.67-1.49,0-1.16-.82-1.46-2.02-1.46v-.72c1.06,0,1.87-.36,1.87-1.39,0-.87-.53-1.35-1.4-1.35s-1.37.49-1.52,1.18c-.07.2-.17.31-.39.31-.03,0-.62-.1-.62-.1.08-.54.49-2.23,2.58-2.23,1.6,0,2.31,1.04,2.31,2.02,0,1.05-.59,1.55-1.37,1.82.92.23,1.55.79,1.55,1.88,0,1.61-1.36,2.36-2.63,2.36-1.87,0-2.35-1.07-2.68-2.06.5-.21.59-.22.66-.22Z"/>
    <path class="b" d="M126.3,21.03l.86-.12.42-1.72c.02-.11.09-.19.22-.19h.52l-.23,1.93h1.46l-.08.71h-1.47l-.35,2.75c-.03.28-.07.51-.07.7,0,.42.15.61.49.61.4,0,.55-.26.67-.26.08,0,.1.04.12.1l.21.46c-.31.28-.77.51-1.31.51-.72,0-1.15-.4-1.15-1.26,0-.31.04-.47.08-.79l.34-2.8h-.62c-.1,0-.15-.07-.15-.17,0-.04.04-.44.04-.44Z"/>
    <path class="b" d="M130.55,21.36c0-.13.07-.24.14-.31l1.67-1.7c.56-.57.92-1.02.92-1.62,0-.56-.33-.89-.89-.89-.53,0-.86.31-.97.74-.05.15-.12.23-.28.23-.04,0-.48-.08-.48-.08.1-.73.58-1.52,1.77-1.52,1.06,0,1.63.68,1.63,1.5s-.48,1.29-1.1,1.93l-1.33,1.37c.19-.05.39-.1.63-.1h1.64c.16,0,.26.1.26.25v.45h-3.6v-.25Z"/>
    <path class="b" d="M137.62,18.21l.44.28c.09.06.14.11.14.21,0,.06-.01.12-.06.2-.68,1.2-1.19,2.65-1.19,4.42,0,2.28.84,3.71,1.14,4.33.07.13.11.23.11.29,0,.09-.06.14-.14.2l-.44.29c-.88-1.36-1.51-2.92-1.51-5.1s.63-3.76,1.51-5.1Z"/>
    <path class="b" d="M141.97,18.48h.79v7.18h1.56v.75h-4.24v-.75h1.69v-5.39c0-.17.01-.33.02-.5l-1.41,1.2c-.06.06-.13.08-.21.08-.1,0-.21-.03-.25-.11l-.31-.43,2.36-2.03Z"/>
    <path class="b" d="M148.23,22.95h6.15v.73h-6.15v-.73Z"/>
    <path class="b" d="M158.11,21.03l.86-.12.42-1.72c.02-.11.09-.19.22-.19h.52l-.23,1.93h1.46l-.08.71h-1.47l-.35,2.75c-.03.28-.07.51-.07.7,0,.42.15.61.49.61.4,0,.55-.26.67-.26.08,0,.1.04.12.1l.21.46c-.31.28-.77.51-1.31.51-.72,0-1.15-.4-1.15-1.26,0-.31.04-.47.08-.79l.34-2.8h-.62c-.1,0-.15-.07-.15-.17,0-.04.04-.44.04-.44Z"/>
    <path class="b" d="M162.53,27.73c.69-1.2,1.19-2.65,1.19-4.42s-.51-3.23-1.19-4.42c-.03-.05-.05-.13-.05-.2,0-.04,0-.12.13-.21l.43-.28c.89,1.36,1.54,2.92,1.54,5.1s-.65,3.75-1.54,5.1l-.43-.29c-.09-.05-.13-.11-.13-.2,0-.06.02-.12.05-.2Z"/>
    <polygon class="b" points="168.47 22.95 171.36 22.95 171.36 20.07 172.09 20.07 172.09 22.95 174.97 22.95 174.97 23.68 172.09 23.68 172.09 26.56 171.36 26.56 171.36 23.68 168.47 23.68 168.47 22.95"/>
    <path class="b" d="M178.53,21.03l.86-.12.42-1.72c.02-.11.09-.19.22-.19h.52l-.23,1.93h1.46l-.08.71h-1.47l-.35,2.75c-.03.28-.07.51-.07.7,0,.42.15.61.49.61.4,0,.55-.26.67-.26.08,0,.1.04.12.1l.21.46c-.31.28-.77.51-1.31.51-.72,0-1.15-.4-1.15-1.26,0-.31.04-.47.08-.79l.34-2.8h-.62c-.1,0-.15-.07-.15-.17,0-.04.04-.44.04-.44Z"/>
    <path class="b" d="M183.25,20.09c.1,0,.2.04.25.14.19.42.45.8,1.07.8.76,0,1.06-.55,1.06-.95,0-.75-.5-.95-1.32-.95v-.54c.7,0,1.22-.22,1.22-.89,0-.55-.33-.86-.89-.86s-.86.31-.97.74c-.05.15-.12.23-.28.23-.04,0-.48-.08-.48-.08.06-.42.36-1.52,1.77-1.52,1.05,0,1.58.66,1.58,1.37,0,.76-.44,1.06-.9,1.22.6.16,1.01.54,1.01,1.26,0,1.08-.89,1.61-1.79,1.61-1.21,0-1.6-.67-1.84-1.41.22-.09.42-.17.51-.17Z"/>
    <path class="b" d="M192.51,17.19c.45,0,.67.33.67.78,0,.94-.53,1.56-1.04,2.02l-.17-.17c-.06-.06-.08-.07-.08-.15,0-.07.03-.12.09-.14.5-.61.55-.85.57-1.04h-.07c-.4,0-.64-.29-.64-.68,0-.36.28-.62.65-.62Z"/>
    <path class="b" d="M196.2,13.11l.86-.12.42-1.72c.02-.11.09-.19.22-.19h.52l-.23,1.93h1.46l-.08.71h-1.47l-.35,2.75c-.03.28-.07.51-.07.7,0,.42.15.61.49.61.4,0,.55-.27.67-.27.08,0,.1.04.12.1l.21.46c-.31.28-.77.51-1.31.51-.72,0-1.15-.4-1.15-1.26,0-.31.04-.47.08-.79l.34-2.8h-.62c-.1,0-.15-.07-.15-.17,0-.04.04-.44.04-.44Z"/>
    <path class="b" d="M206.83,12.33h3.25v.73h-3.2c-1.14,0-2.09.94-2.27,1.99h5.48v.73h-5.49c.19,1.05,1.14,1.99,2.27,1.99h3.21v.73h-3.21c-1.77,0-3.03-1.45-3.03-3.08s1.24-3.08,2.99-3.08Z"/>
    <path class="b" d="M214.87,10.37h2.03v.27c0,.15-.11.26-.28.26h-.98v8.99h.98c.15,0,.28.11.28.26v.27h-2.03v-10.05Z"/>
    <path class="b" d="M220.64,10.49c1.62,0,2.87,1.27,2.87,4.04s-1.37,4.04-2.87,4.04c-1.68,0-2.87-1.34-2.87-4.04s1.25-4.04,2.87-4.04ZM220.64,17.74c1.57,0,1.85-1.87,1.85-3.2,0-1.24-.25-3.21-1.85-3.21s-1.85,1.92-1.85,3.21c0,.76.07,3.2,1.85,3.2Z"/>
    <path class="b" d="M225.07,17.19c.45,0,.67.33.67.78,0,.94-.53,1.56-1.04,2.02l-.17-.17c-.06-.06-.08-.07-.08-.15,0-.07.03-.12.09-.14.5-.61.55-.85.57-1.04h-.07c-.4,0-.64-.29-.64-.68,0-.36.28-.62.65-.62Z"/>
    <path class="b" d="M229.59,10.56h.79v7.18h1.56v.75h-4.24v-.75h1.69v-5.39c0-.17.01-.33.02-.5l-1.41,1.2c-.06.06-.13.08-.21.08-.1,0-.21-.03-.25-.11l-.31-.43,2.36-2.03Z"/>
    <path class="b" d="M233.55,19.89h.98v-8.99h-.98c-.15,0-.28-.11-.28-.26v-.27h2.03v10.05h-2.03v-.27c0-.15.11-.26.28-.26Z"/>
  </g>
</svg>