<?xml version="1.0" encoding="UTF-8"?>
<svg id="a" data-name="图层 1" xmlns="http://www.w3.org/2000/svg" viewBox="0 0 253.83 33.7">
  <defs>
    <style>
      .b {
        fill: #000;
        opacity: .82;
      }

      .c {
        opacity: .4;
      }
      @media (prefers-color-scheme: dark) {
        .b {
          fill: #ffffff;
        }
      }
    </style>
  </defs>
  <g class="c">
    <path class="b" d="M242.81,11.39l.44.28c.09.06.14.11.14.21,0,.06-.01.12-.06.2-.68,1.2-1.19,2.65-1.19,4.42,0,2.28.84,3.71,1.14,4.33.07.13.11.23.11.29,0,.09-.06.14-.14.2l-.44.29c-.88-1.36-1.51-2.92-1.51-5.1s.63-3.76,1.51-5.1Z"/>
    <path class="b" d="M244.87,18.41c.07-.09.15-.13.25-.13.3,0,.71.55,1.69.55,1.29,0,1.81-.96,1.81-1.88,0-1.07-.67-1.61-1.75-1.61-.46,0-.89.08-1.28.21l-.62-.19.64-3.69h3.75v.42c0,.33-.2.49-.57.49h-2.49l-.37,2.08c.41-.09.8-.13,1.14-.13,1.46,0,2.53.83,2.53,2.39,0,1.93-1.49,2.76-2.84,2.76-1.13,0-1.93-.56-2.21-.84l.31-.42Z"/>
    <path class="b" d="M250.96,20.91c.69-1.2,1.19-2.65,1.19-4.42s-.51-3.23-1.19-4.42c-.03-.06-.05-.13-.05-.2,0-.04,0-.12.13-.21l.43-.28c.89,1.36,1.54,2.92,1.54,5.1s-.65,3.74-1.54,5.1l-.43-.29c-.09-.05-.13-.11-.13-.2,0-.06.02-.12.05-.2Z"/>
  </g>
  <g>
    <path class="b" d="M12.58,15.98c.73,0,1.04-.49,1.04-1.56v-7.07c0-1.26.59-1.85,2.19-1.85v.84c-.84,0-1.18.3-1.18.91v7.29c0,1.21-.41,1.66-1,1.88.6.21,1,.65,1,1.87v7.29c0,.61.34.91,1.18.91v.84c-1.6,0-2.19-.6-2.19-1.85v-7.07c0-1.07-.31-1.56-1.04-1.56v-.85Z"/>
    <path class="b" d="M18.75,10.5l-1.34-2.58h.87c.14,0,.2.03.24.13l.94,1.92.13-.23,1.27-1.67c.07-.09.13-.15.23-.15h.88l-1.99,2.58,1.48,3h-.87c-.15,0-.22-.09-.28-.2l-1.05-2.23c-.03.08-.08.14-.12.21l-1.52,2.03c-.08.09-.14.19-.29.19h-.86l2.26-3Z"/>
    <path class="b" d="M26.24,8.94h6.51v.73h-6.51v-.73ZM26.24,11.15h6.51v.73h-6.51v-.73Z"/>
    <path class="b" d="M37.44,11.31c.14,0,.26.06.32.19.29.66.7,1.26,1.68,1.26,1.19,0,1.67-.85,1.67-1.49,0-1.16-.82-1.46-2.02-1.46v-.72c1.06,0,1.87-.36,1.87-1.39,0-.87-.53-1.35-1.4-1.35s-1.37.49-1.52,1.18c-.07.2-.17.31-.39.31-.03,0-.62-.1-.62-.1.08-.54.49-2.23,2.58-2.23,1.6,0,2.31,1.04,2.31,2.02,0,1.05-.59,1.55-1.37,1.82.92.23,1.55.79,1.55,1.88,0,1.61-1.36,2.36-2.63,2.36-1.87,0-2.35-1.07-2.68-2.06.5-.21.59-.22.66-.22Z"/>
    <path class="b" d="M43.29,8.13l.86-.12.42-1.72c.02-.11.09-.19.22-.19h.52l-.23,1.93h1.46l-.08.71h-1.47l-.35,2.75c-.03.28-.07.51-.07.7,0,.42.15.61.49.61.4,0,.55-.26.67-.26.08,0,.1.04.12.1l.21.46c-.31.28-.77.51-1.31.51-.72,0-1.15-.4-1.15-1.26,0-.31.04-.47.08-.79l.34-2.8h-.62c-.1,0-.15-.07-.15-.17,0-.04.04-.44.04-.44Z"/>
    <path class="b" d="M49.52,5.31l.44.28c.09.06.14.11.14.21,0,.06-.01.12-.06.2-.69,1.2-1.19,2.65-1.19,4.42,0,2.28.84,3.71,1.14,4.33.07.13.11.23.11.29,0,.09-.06.14-.14.2l-.44.29c-.88-1.36-1.51-2.92-1.51-5.1s.63-3.76,1.51-5.1Z"/>
    <path class="b" d="M53.95,5.58h.79v7.18h1.56v.75h-4.24v-.75h1.69v-5.39c0-.17.01-.33.02-.5l-1.41,1.2c-.06.06-.13.08-.21.08-.1,0-.21-.03-.25-.11l-.31-.43,2.36-2.03Z"/>
    <path class="b" d="M60.21,10.05h6.15v.73h-6.15v-.73Z"/>
    <path class="b" d="M70.09,8.13l.86-.12.42-1.72c.02-.11.09-.19.22-.19h.52l-.23,1.93h1.46l-.08.71h-1.47l-.35,2.75c-.03.28-.07.51-.07.7,0,.42.15.61.49.61.4,0,.55-.26.67-.26.08,0,.1.04.12.1l.21.46c-.31.28-.77.51-1.31.51-.72,0-1.15-.4-1.15-1.26,0-.31.04-.47.08-.79l.34-2.8h-.62c-.1,0-.15-.07-.15-.17,0-.04.04-.44.04-.44Z"/>
    <path class="b" d="M74.66,14.83c.69-1.2,1.19-2.65,1.19-4.42s-.51-3.23-1.19-4.42c-.03-.06-.06-.13-.06-.2,0-.04,0-.12.13-.21l.43-.28c.9,1.36,1.54,2.92,1.54,5.1s-.65,3.75-1.54,5.1l-.43-.29c-.09-.06-.13-.11-.13-.2,0-.06.02-.12.06-.2Z"/>
    <path class="b" d="M77.8,8.69c0-.13.07-.24.14-.31l1.67-1.7c.56-.57.92-1.02.92-1.62,0-.56-.33-.89-.89-.89-.53,0-.86.31-.97.74-.05.15-.12.23-.28.23-.04,0-.48-.08-.48-.08.1-.73.58-1.52,1.77-1.52,1.06,0,1.63.68,1.63,1.5s-.48,1.29-1.1,1.93l-1.33,1.37c.19-.05.39-.1.63-.1h1.64c.16,0,.26.1.26.25v.45h-3.6v-.25Z"/>
    <path class="b" d="M86.52,9.74c.35,0,.65.31.65.66s-.3.66-.65.66-.67-.33-.67-.66.31-.66.67-.66Z"/>
    <path class="b" d="M93.72,5.51c1.62,0,2.87,1.27,2.87,4.04s-1.37,4.04-2.87,4.04c-1.68,0-2.87-1.34-2.87-4.04s1.25-4.04,2.87-4.04ZM93.72,12.76c1.57,0,1.85-1.87,1.85-3.2,0-1.24-.25-3.21-1.85-3.21s-1.85,1.92-1.85,3.21c0,.76.07,3.2,1.85,3.2Z"/>
    <path class="b" d="M98.2,12.2c.4,0,.68.3.68.7s-.29.7-.68.7-.68-.29-.68-.7.28-.7.68-.7Z"/>
    <path class="b" d="M103.47,5.6h.92v5.06h1.2v.55c0,.13-.09.22-.22.22h-.98v2.08h-.86v-2.08h-3.51c-.14,0-.28-.1-.3-.22l-.09-.51,3.84-5.1ZM103.53,10.66v-3.27c0-.22.02-.45.04-.66l-2.88,3.93h2.84Z"/>
    <polygon class="b" points="108.85 10.05 111.73 10.05 111.73 7.17 112.46 7.17 112.46 10.05 115.34 10.05 115.34 10.78 112.46 10.78 112.46 13.66 111.73 13.66 111.73 10.78 108.85 10.78 108.85 10.05"/>
    <path class="b" d="M118.91,8.13l.86-.12.42-1.72c.02-.11.09-.19.22-.19h.52l-.23,1.93h1.46l-.08.71h-1.47l-.35,2.75c-.03.28-.07.51-.07.7,0,.42.15.61.49.61.4,0,.55-.26.67-.26.08,0,.1.04.12.1l.21.46c-.31.28-.77.51-1.31.51-.72,0-1.15-.4-1.15-1.26,0-.31.04-.47.08-.79l.34-2.8h-.62c-.1,0-.15-.07-.15-.17,0-.04.04-.44.04-.44Z"/>
    <path class="b" d="M123.63,7.43c.1,0,.2.04.25.14.19.42.45.8,1.07.8.76,0,1.06-.55,1.06-.95,0-.75-.5-.95-1.32-.95v-.54c.7,0,1.22-.22,1.22-.89,0-.55-.33-.86-.89-.86s-.86.31-.97.74c-.05.15-.12.23-.28.23-.04,0-.48-.08-.48-.08.06-.42.36-1.52,1.77-1.52,1.05,0,1.59.66,1.59,1.37,0,.76-.44,1.06-.9,1.22.6.16,1.01.54,1.01,1.26,0,1.08-.89,1.61-1.79,1.61-1.21,0-1.6-.67-1.84-1.41.22-.09.42-.17.51-.17Z"/>
    <polygon class="b" points="130.82 10.05 133.7 10.05 133.7 7.17 134.43 7.17 134.43 10.05 137.31 10.05 137.31 10.78 134.43 10.78 134.43 13.66 133.7 13.66 133.7 10.78 130.82 10.78 130.82 10.05"/>
    <path class="b" d="M143.47,5.51c1.62,0,2.87,1.27,2.87,4.04s-1.37,4.04-2.87,4.04c-1.68,0-2.87-1.34-2.87-4.04s1.25-4.04,2.87-4.04ZM143.47,12.76c1.57,0,1.85-1.87,1.85-3.2,0-1.24-.25-3.21-1.85-3.21s-1.85,1.92-1.85,3.21c0,.76.07,3.2,1.85,3.2Z"/>
    <path class="b" d="M147.95,12.2c.4,0,.68.3.68.7s-.29.7-.68.7-.68-.29-.68-.7.28-.7.68-.7Z"/>
    <path class="b" d="M152.51,5.58h.79v7.18h1.56v.75h-4.24v-.75h1.69v-5.39c0-.17.01-.33.02-.5l-1.41,1.2c-.06.06-.13.08-.21.08-.1,0-.21-.03-.25-.11l-.31-.43,2.36-2.03Z"/>
    <path class="b" d="M18.71,21.84c.17,0,.21.08.25.2l.89,3.52c.03.14.07.3.08.46.07-.15.13-.34.21-.47l1.77-3.52c.06-.1.15-.19.29-.19h.77l-3.78,7.25c-.08.12-.15.23-.34.23h-.72l1.21-2.23-1.46-5.26h.82Z"/>
    <path class="b" d="M27.23,22.86h6.51v.73h-6.51v-.73ZM27.23,25.07h6.51v.73h-6.51v-.73Z"/>
    <path class="b" d="M38.42,25.23c.14,0,.26.06.32.19.29.66.7,1.26,1.68,1.26,1.19,0,1.67-.85,1.67-1.49,0-1.16-.82-1.46-2.02-1.46v-.72c1.06,0,1.87-.36,1.87-1.39,0-.87-.53-1.35-1.4-1.35s-1.37.49-1.52,1.18c-.07.2-.17.31-.39.31-.03,0-.62-.1-.62-.1.08-.54.49-2.23,2.58-2.23,1.6,0,2.31,1.04,2.31,2.02,0,1.05-.59,1.55-1.37,1.82.92.23,1.55.79,1.55,1.88,0,1.61-1.36,2.36-2.63,2.36-1.87,0-2.35-1.07-2.68-2.06.5-.21.59-.22.66-.22Z"/>
    <path class="b" d="M44.27,22.05l.86-.12.42-1.72c.02-.11.09-.19.22-.19h.52l-.23,1.93h1.46l-.08.71h-1.47l-.35,2.75c-.03.28-.07.51-.07.7,0,.42.15.61.49.61.4,0,.55-.27.67-.27.08,0,.1.04.12.1l.21.46c-.31.28-.77.51-1.31.51-.72,0-1.15-.4-1.15-1.26,0-.31.04-.47.08-.79l.34-2.8h-.62c-.1,0-.15-.07-.15-.17,0-.04.04-.44.04-.44Z"/>
    <path class="b" d="M50.48,19.23l.44.28c.09.06.14.11.14.21,0,.06-.01.12-.06.2-.69,1.2-1.19,2.65-1.19,4.42,0,2.28.84,3.71,1.14,4.33.07.13.11.23.11.29,0,.09-.06.14-.14.2l-.44.29c-.88-1.36-1.51-2.92-1.51-5.1s.63-3.76,1.51-5.1Z"/>
    <path class="b" d="M54.93,19.5h.79v7.18h1.56v.75h-4.24v-.75h1.69v-5.39c0-.17.01-.33.02-.5l-1.41,1.2c-.06.06-.13.08-.21.08-.1,0-.21-.03-.25-.11l-.31-.43,2.36-2.03Z"/>
    <path class="b" d="M61.19,23.97h6.15v.73h-6.15v-.73Z"/>
    <path class="b" d="M71.07,22.05l.86-.12.42-1.72c.02-.11.09-.19.22-.19h.52l-.23,1.93h1.46l-.08.71h-1.47l-.35,2.75c-.03.28-.07.51-.07.7,0,.42.15.61.49.61.4,0,.55-.27.67-.27.08,0,.1.04.12.1l.21.46c-.31.28-.77.51-1.31.51-.72,0-1.15-.4-1.15-1.26,0-.31.04-.47.08-.79l.34-2.8h-.62c-.1,0-.15-.07-.15-.17,0-.04.04-.44.04-.44Z"/>
    <path class="b" d="M75.62,28.75c.69-1.2,1.19-2.65,1.19-4.42s-.51-3.23-1.19-4.42c-.03-.05-.06-.13-.06-.2,0-.04,0-.12.13-.21l.43-.28c.9,1.36,1.54,2.92,1.54,5.1s-.65,3.75-1.54,5.1l-.43-.29c-.09-.05-.13-.11-.13-.2,0-.06.02-.12.06-.2Z"/>
    <path class="b" d="M78.79,22.37c0-.13.07-.24.14-.31l1.67-1.7c.56-.57.92-1.02.92-1.62,0-.56-.33-.89-.89-.89-.53,0-.86.31-.97.74-.05.15-.12.23-.28.23-.04,0-.48-.08-.48-.08.1-.73.58-1.52,1.77-1.52,1.06,0,1.63.68,1.63,1.5s-.48,1.29-1.1,1.93l-1.33,1.37c.19-.05.39-.1.63-.1h1.64c.16,0,.26.1.26.25v.45h-3.6v-.25Z"/>
    <path class="b" d="M87.51,23.66c.35,0,.65.31.65.66s-.3.66-.65.66-.67-.33-.67-.66.31-.66.67-.66Z"/>
    <path class="b" d="M94.71,19.43c1.62,0,2.87,1.27,2.87,4.04s-1.37,4.04-2.87,4.04c-1.68,0-2.87-1.34-2.87-4.04s1.25-4.04,2.87-4.04ZM94.71,26.68c1.57,0,1.85-1.87,1.85-3.2,0-1.24-.25-3.21-1.85-3.21s-1.85,1.92-1.85,3.21c0,.76.07,3.2,1.85,3.2Z"/>
    <path class="b" d="M99.19,26.12c.4,0,.68.3.68.7s-.29.7-.68.7-.68-.29-.68-.7.28-.7.68-.7Z"/>
    <path class="b" d="M101,27.1c0-.19.09-.32.19-.42l2.53-2.55c.75-.76,1.4-1.47,1.4-2.46,0-.88-.55-1.39-1.42-1.39s-1.37.5-1.52,1.18c-.07.2-.18.31-.4.31-.06,0-.61-.1-.61-.1.19-1.35,1.06-2.23,2.58-2.23,1.62,0,2.37,1.07,2.37,2.2s-.73,1.92-1.65,2.86l-2.08,2.14c.27-.08.55-.13.88-.13h2.65c.21,0,.34.12.34.33v.6h-5.28v-.33Z"/>
    <polygon class="b" points="109.84 23.97 112.72 23.97 112.72 21.09 113.45 21.09 113.45 23.97 116.33 23.97 116.33 24.7 113.45 24.7 113.45 27.58 112.72 27.58 112.72 24.7 109.84 24.7 109.84 23.97"/>
    <path class="b" d="M120.42,25.23c.14,0,.26.06.32.19.29.66.7,1.26,1.68,1.26,1.19,0,1.67-.85,1.67-1.49,0-1.16-.82-1.46-2.02-1.46v-.72c1.06,0,1.87-.36,1.87-1.39,0-.87-.53-1.35-1.4-1.35s-1.37.49-1.52,1.18c-.07.2-.17.31-.39.31-.03,0-.62-.1-.62-.1.08-.54.49-2.23,2.58-2.23,1.6,0,2.31,1.04,2.31,2.02,0,1.05-.59,1.55-1.37,1.82.92.23,1.55.79,1.55,1.88,0,1.61-1.36,2.36-2.63,2.36-1.87,0-2.35-1.07-2.68-2.06.5-.21.59-.22.66-.22Z"/>
    <path class="b" d="M126.27,22.05l.86-.12.42-1.72c.02-.11.09-.19.22-.19h.52l-.23,1.93h1.46l-.08.71h-1.47l-.35,2.75c-.03.28-.07.51-.07.7,0,.42.15.61.49.61.4,0,.55-.27.67-.27.08,0,.1.04.12.1l.21.46c-.31.28-.77.51-1.31.51-.72,0-1.15-.4-1.15-1.26,0-.31.04-.47.08-.79l.34-2.8h-.62c-.1,0-.15-.07-.15-.17,0-.04.04-.44.04-.44Z"/>
    <path class="b" d="M130.52,22.37c0-.13.07-.24.14-.31l1.67-1.7c.56-.57.92-1.02.92-1.62,0-.56-.33-.89-.89-.89-.53,0-.86.31-.97.74-.05.15-.12.23-.28.23-.04,0-.48-.08-.48-.08.1-.73.58-1.52,1.77-1.52,1.06,0,1.63.68,1.63,1.5s-.48,1.29-1.1,1.93l-1.33,1.37c.19-.05.39-.1.63-.1h1.64c.16,0,.26.1.26.25v.45h-3.6v-.25Z"/>
    <path class="b" d="M137.6,19.23l.44.28c.09.05.14.11.14.21,0,.05-.01.12-.06.2-.68,1.2-1.19,2.65-1.19,4.42,0,2.28.84,3.71,1.14,4.33.07.13.11.23.11.29,0,.09-.06.14-.14.2l-.44.29c-.88-1.36-1.51-2.92-1.51-5.1s.63-3.76,1.51-5.1Z"/>
    <path class="b" d="M141.94,19.5h.79v7.18h1.56v.75h-4.24v-.75h1.69v-5.39c0-.17.01-.33.02-.5l-1.41,1.2c-.06.06-.13.08-.21.08-.1,0-.21-.03-.25-.11l-.31-.43,2.36-2.03Z"/>
    <path class="b" d="M148.2,23.97h6.15v.73h-6.15v-.73Z"/>
    <path class="b" d="M158.08,22.05l.86-.12.42-1.72c.02-.11.09-.19.22-.19h.52l-.23,1.93h1.46l-.08.71h-1.47l-.35,2.75c-.03.28-.07.51-.07.7,0,.42.15.61.49.61.4,0,.55-.27.67-.27.08,0,.1.04.12.1l.21.46c-.31.28-.77.51-1.31.51-.72,0-1.15-.4-1.15-1.26,0-.31.04-.47.08-.79l.34-2.8h-.62c-.1,0-.15-.07-.15-.17,0-.04.04-.44.04-.44Z"/>
    <path class="b" d="M162.5,28.75c.69-1.2,1.19-2.65,1.19-4.42s-.51-3.23-1.19-4.42c-.03-.06-.05-.13-.05-.2,0-.04,0-.12.13-.21l.43-.28c.89,1.36,1.54,2.92,1.54,5.1s-.65,3.75-1.54,5.1l-.43-.29c-.09-.06-.13-.11-.13-.2,0-.05.02-.12.05-.2Z"/>
    <polygon class="b" points="168.45 23.97 171.33 23.97 171.33 21.09 172.06 21.09 172.06 23.97 174.94 23.97 174.94 24.7 172.06 24.7 172.06 27.58 171.33 27.58 171.33 24.7 168.45 24.7 168.45 23.97"/>
    <path class="b" d="M178.5,22.05l.86-.12.42-1.72c.02-.11.09-.19.22-.19h.52l-.23,1.93h1.46l-.08.71h-1.47l-.35,2.75c-.03.28-.07.51-.07.7,0,.42.15.61.49.61.4,0,.55-.27.67-.27.08,0,.1.04.12.1l.21.46c-.31.28-.77.51-1.31.51-.72,0-1.15-.4-1.15-1.26,0-.31.04-.47.08-.79l.34-2.8h-.62c-.1,0-.15-.07-.15-.17,0-.04.04-.44.04-.44Z"/>
    <path class="b" d="M183.22,21.11c.1,0,.2.04.25.14.19.42.45.8,1.07.8.76,0,1.06-.55,1.06-.95,0-.75-.5-.95-1.32-.95v-.54c.7,0,1.22-.22,1.22-.89,0-.55-.33-.86-.89-.86s-.86.31-.97.74c-.05.15-.12.23-.28.23-.04,0-.48-.08-.48-.08.06-.42.36-1.52,1.77-1.52,1.05,0,1.59.66,1.59,1.37,0,.76-.44,1.06-.9,1.22.6.16,1.01.54,1.01,1.26,0,1.08-.89,1.61-1.79,1.61-1.21,0-1.6-.67-1.84-1.41.22-.09.42-.17.51-.17Z"/>
    <path class="b" d="M192.62,18.2c.45,0,.67.33.67.78,0,.94-.53,1.56-1.04,2.02l-.17-.17c-.06-.06-.08-.07-.08-.15,0-.07.03-.12.09-.14.5-.61.55-.85.57-1.04h-.07c-.4,0-.64-.29-.64-.68,0-.36.28-.62.65-.62Z"/>
    <path class="b" d="M196.31,14.13l.86-.12.42-1.72c.02-.11.09-.19.22-.19h.52l-.23,1.93h1.46l-.08.71h-1.47l-.35,2.75c-.03.28-.07.51-.07.7,0,.42.15.61.49.61.4,0,.55-.26.67-.26.08,0,.1.04.12.1l.21.46c-.31.28-.77.51-1.31.51-.72,0-1.15-.4-1.15-1.26,0-.31.04-.47.08-.79l.34-2.8h-.62c-.1,0-.15-.07-.15-.17,0-.04.04-.44.04-.44Z"/>
    <path class="b" d="M206.94,13.35h3.25v.73h-3.2c-1.14,0-2.09.94-2.27,1.99h5.48v.73h-5.49c.19,1.05,1.14,1.99,2.27,1.99h3.21v.73h-3.21c-1.77,0-3.03-1.45-3.03-3.08s1.24-3.08,2.99-3.08Z"/>
    <path class="b" d="M215.08,11.39h2.03v.27c0,.15-.11.27-.28.27h-.98v8.99h.98c.15,0,.28.11.28.27v.26h-2.03v-10.05Z"/>
    <path class="b" d="M220.75,11.51c1.62,0,2.87,1.27,2.87,4.04s-1.37,4.04-2.87,4.04c-1.68,0-2.87-1.34-2.87-4.04s1.25-4.04,2.87-4.04ZM220.75,18.76c1.57,0,1.85-1.87,1.85-3.2,0-1.24-.25-3.21-1.85-3.21s-1.85,1.92-1.85,3.21c0,.76.07,3.2,1.85,3.2Z"/>
    <path class="b" d="M225.18,18.2c.45,0,.67.33.67.78,0,.94-.53,1.56-1.04,2.02l-.17-.17c-.06-.06-.08-.07-.08-.15,0-.07.03-.12.09-.14.5-.61.55-.85.57-1.04h-.07c-.4,0-.64-.29-.64-.68,0-.36.28-.62.65-.62Z"/>
    <path class="b" d="M229.7,11.58h.79v7.18h1.56v.75h-4.24v-.75h1.69v-5.39c0-.17.01-.33.02-.5l-1.41,1.2c-.06.06-.13.08-.21.08-.1,0-.21-.03-.25-.11l-.31-.43,2.36-2.03Z"/>
    <path class="b" d="M233.52,20.91h.98v-8.99h-.98c-.15,0-.28-.11-.28-.27v-.27h2.03v10.05h-2.03v-.26c0-.15.11-.27.28-.27Z"/>
  </g>
</svg>