<?xml version="1.0" encoding="UTF-8"?>
<svg id="a" data-name="图层 1" xmlns="http://www.w3.org/2000/svg" viewBox="0 0 253.83 39.19">
  <defs>
    <style>
      .b, .c {
        fill: #000000;
      }

      .d, .c {
        opacity: .82;
      }

      .e {
        opacity: .4;
      }
      @media (prefers-color-scheme: dark) {
        .b, .c {
          fill: #ffffff;
        }
      }
    </style>
  </defs>
  <path class="c" d="M12.42,14.42h2.35c1.36,0,2.34.44,2.34,1.77,0,1.16-.72,1.79-1.62,2.08.83.18,1.42.64,1.42,1.58,0,1.48-1.06,2.48-2.87,2.48h-2.59l.97-7.91ZM14.13,21.51c1.1,0,1.77-.56,1.77-1.66,0-.79-.57-1.15-1.42-1.15h-1.56l-.33,2.8h1.55ZM14.29,17.98c1.09,0,1.79-.53,1.79-1.61,0-.83-.52-1.14-1.4-1.14h-1.31l-.34,2.75h1.27Z"/>
  <path class="c" d="M21.32,16.65c1.2,0,1.63.81,1.63,1.28,0,1.3-1.38,1.71-3.58,1.94v.24c0,.94.39,1.51,1.29,1.51,1.05,0,1.37-.74,1.72-.74.08,0,.13.03.19.1l.24.3c-.6.6-1.19,1.12-2.34,1.12-1.41,0-2.06-1.03-2.06-2.26,0-1.95,1.28-3.49,2.9-3.49ZM22.07,17.98c0-.41-.38-.62-.81-.62-1.32,0-1.72,1.53-1.8,1.87,1.94-.27,2.61-.57,2.61-1.25Z"/>
  <g class="d">
    <path class="b" d="M20.58,14.57c.1-.17.19-.24.43-.24h.97l-1.29,1.41c-.09.09-.15.15-.34.15h-.59l.82-1.33Z"/>
  </g>
  <path class="c" d="M24.01,21.92c.01-.12.09-.28.15-.35l3.25-4.05h-2.72l.1-.77h3.88l-.06.42c-.01.17-.09.26-.17.38l-3.22,4.02h2.76l-.09.77h-3.94l.06-.41ZM29.9,16.74h.96l-.67,5.59h-.97l.68-5.59ZM30.55,14.27c.38,0,.68.35.68.71,0,.39-.31.71-.7.71s-.66-.36-.66-.71c0-.49.47-.71.67-.71ZM35,16.65c1.2,0,1.63.81,1.63,1.28,0,1.3-1.38,1.71-3.58,1.94v.24c0,.94.39,1.51,1.29,1.51,1.05,0,1.37-.74,1.72-.74.08,0,.13.03.19.1l.24.3c-.6.6-1.19,1.12-2.34,1.12-1.41,0-2.06-1.03-2.06-2.26,0-1.95,1.28-3.49,2.9-3.49ZM35.75,17.98c0-.41-.38-.62-.81-.62-1.32,0-1.72,1.53-1.8,1.87,1.94-.27,2.61-.57,2.61-1.25ZM37.91,16.73h.49c.22,0,.33.11.34.33l-.1,1.23c.24-.52.86-1.6,1.74-1.6.14,0,.3.03.46.1l-.18.95c-.18-.07-.34-.1-.5-.1-.57,0-1.23.44-1.67,2.11l-.31,2.58h-.95l.66-5.6Z"/>
  <g class="d">
    <path class="b" d="M43.91,14.13l.44.28c.09.06.14.11.14.21,0,.06-.01.12-.06.2-.68,1.2-1.19,2.65-1.19,4.42,0,2.28.84,3.71,1.14,4.33.07.13.11.23.11.29,0,.09-.06.14-.14.2l-.44.29c-.88-1.36-1.51-2.92-1.51-5.1s.63-3.76,1.51-5.1Z"/>
  </g>
  <path class="c" d="M46.19,16.73h.49c.22,0,.33.11.33.33l-.08,1.09c.43-.72,1.14-1.5,2.18-1.5.92,0,1.31.7,1.31,1.62,0,.15-.01.33-.03.5l-.42,3.56h-.97l.42-3.56c.02-.15.02-.29.02-.42,0-.53-.17-.88-.71-.88-.78,0-1.53.92-1.9,2.02l-.33,2.84h-.97l.66-5.6Z"/>
  <path class="c" d="M52.34,21.02c.45,0,.67.33.67.78,0,.94-.53,1.56-1.04,2.02l-.17-.17c-.06-.06-.08-.07-.08-.15,0-.07.03-.12.09-.14.5-.61.55-.85.57-1.04h-.07c-.4,0-.64-.29-.64-.68,0-.36.28-.62.65-.62Z"/>
  <path class="c" d="M56.03,16.95l.86-.12.42-1.72c.02-.11.09-.19.22-.19h.52l-.23,1.93h1.46l-.08.71h-1.47l-.35,2.75c-.03.28-.07.51-.07.7,0,.42.15.61.49.61.4,0,.55-.26.67-.26.08,0,.1.04.12.1l.21.46c-.31.28-.77.51-1.31.51-.72,0-1.15-.4-1.15-1.26,0-.31.04-.47.08-.79l.34-2.8h-.62c-.1,0-.15-.07-.15-.17,0-.04.04-.44.04-.44Z"/>
  <g class="d">
    <path class="b" d="M60.66,23.65c.69-1.2,1.19-2.65,1.19-4.42s-.51-3.23-1.19-4.42c-.03-.06-.06-.13-.06-.2,0-.04,0-.12.13-.21l.43-.28c.9,1.36,1.54,2.92,1.54,5.1s-.65,3.74-1.54,5.1l-.43-.29c-.09-.05-.13-.11-.13-.2,0-.06.02-.12.06-.2Z"/>
  </g>
  <g class="d">
    <path class="b" d="M67,17.76h6.51v.73h-6.51v-.73ZM67,19.97h6.51v.73h-6.51v-.73Z"/>
  </g>
  <g class="e">
    <path class="b" d="M242.81,14.13l.44.28c.09.06.14.11.14.21,0,.06-.01.12-.06.2-.68,1.2-1.19,2.65-1.19,4.42,0,2.28.84,3.71,1.14,4.33.07.13.11.23.11.29,0,.09-.06.14-.14.2l-.44.29c-.88-1.36-1.51-2.92-1.51-5.1s.63-3.76,1.51-5.1Z"/>
    <path class="b" d="M247.22,14.39h.8v7.18h1.56v.75h-4.24v-.75h1.69v-5.39c0-.17.01-.33.02-.5l-1.41,1.2c-.05.06-.13.08-.21.08-.1,0-.21-.03-.25-.11l-.31-.43,2.36-2.03Z"/>
    <path class="b" d="M250.96,23.65c.69-1.2,1.19-2.65,1.19-4.42s-.51-3.23-1.19-4.42c-.03-.06-.05-.13-.05-.2,0-.04,0-.12.13-.21l.43-.28c.89,1.36,1.54,2.92,1.54,5.1s-.65,3.74-1.54,5.1l-.43-.29c-.09-.05-.13-.11-.13-.2,0-.06.02-.12.05-.2Z"/>
  </g>
  <path class="c" d="M78.41,27.03c0-.07.01-.12.03-.19v-.02s.03-.11.08-.17l5.26-7.39.04-.07-5.3-7.39c-.08-.12-.11-.17-.11-.4v-.42h13.01v1.04h-11.04c1.62,2.33,3.24,4.67,4.86,7v.36c-1.62,2.34-3.24,4.67-4.86,7.01h11.04v1.06h-13.01v-.44Z"/>
  <path class="c" d="M97.89,10.15l.66.42c-1.28,2.69-1.92,5.11-1.92,8.67s.64,5.98,1.92,8.68l-.66.42c-1.37-2.72-2.35-5.2-2.35-9.1s.98-6.37,2.35-9.09Z"/>
  <path class="c" d="M100.11,10.25h.49c.22,0,.33.11.33.33l-.08,1.09c.43-.72,1.14-1.5,2.18-1.5.92,0,1.31.7,1.31,1.62,0,.15-.01.33-.03.5l-.42,3.56h-.97l.42-3.56c.02-.15.02-.29.02-.42,0-.53-.17-.88-.71-.88-.78,0-1.53.92-1.9,2.02l-.33,2.84h-.97l.66-5.6Z"/>
  <path class="c" d="M101.54,24.42h.96l-.67,5.59h-.97l.68-5.59ZM102.19,21.95c.38,0,.68.35.68.71,0,.39-.31.71-.7.71s-.66-.36-.66-.71c0-.49.47-.71.67-.71Z"/>
  <path class="c" d="M107.32,19.23c0-3.56-.65-5.97-1.92-8.67l.66-.42c1.37,2.72,2.35,5.2,2.35,9.09s-.98,6.38-2.35,9.1l-.66-.42c1.27-2.69,1.92-5.12,1.92-8.68Z"/>
  <path class="c" d="M83.57,5.58h.37c.16,0,.25.08.25.25l-.04.65c.28-.46.75-.95,1.44-.95.63,0,.91.48.91,1.11,0,.1,0,.22-.02.33l-.28,2.4h-.75l.28-2.4c.01-.1.01-.19.01-.27,0-.33-.1-.55-.43-.55-.51,0-1,.63-1.22,1.32l-.22,1.9h-.75l.45-3.79Z"/>
  <path class="c" d="M79.79,30.79h.74l-.45,3.78h-.74l.46-3.78ZM80.27,29.1c.28,0,.5.26.5.51,0,.31-.27.51-.51.51-.26,0-.49-.24-.49-.51,0-.33.32-.51.5-.51Z"/>
  <path class="c" d="M81.64,31.43h4.38v.56h-4.38v-.56ZM81.64,32.97h4.38v.56h-4.38v-.56Z"/>
  <path class="c" d="M88.58,29.16c1.08,0,1.95.83,1.95,2.73s-.91,2.73-1.95,2.73c-1.1,0-1.95-.85-1.95-2.73s.88-2.73,1.95-2.73ZM88.58,33.99c.95,0,1.17-1.12,1.17-2.1,0-.89-.18-2.11-1.17-2.11s-1.17,1.17-1.17,2.11c0,.72.12,2.1,1.17,2.1Z"/>
  <g class="d">
    <path class="b" d="M113.45,18.56c.35,0,.65.31.65.66s-.3.66-.65.66-.67-.33-.67-.66.31-.66.67-.66Z"/>
  </g>
  <path class="c" d="M118.33,14.34h2.61c1.83,0,3.09.76,3.09,2.55,0,1.89-1.47,2.63-3.09,2.63h-1.12v2.8h-1.49v-7.98ZM120.93,18.35c1,0,1.61-.46,1.61-1.46s-.62-1.4-1.61-1.4h-1.12v2.86h1.12Z"/>
  <path class="c" d="M123.54,19.44c.34,0,.6.27.6.6,0,.41-.39.57-.6.57-.33,0-.58-.25-.58-.57,0-.36.28-.6.58-.6ZM123.09,21.15h.92v3.82h-.92v-3.82Z"/>
  <g class="d">
    <path class="b" d="M129.2,18.56c.35,0,.65.31.65.66s-.3.66-.65.66-.67-.33-.67-.66.31-.66.67-.66Z"/>
  </g>
  <g class="d">
    <path class="b" d="M135.59,14.13l.44.28c.09.06.14.11.14.21,0,.06-.01.12-.06.2-.68,1.2-1.19,2.65-1.19,4.42,0,2.28.84,3.71,1.14,4.33.07.13.11.23.11.29,0,.09-.06.14-.14.2l-.44.29c-.88-1.36-1.51-2.92-1.51-5.1s.63-3.76,1.51-5.1Z"/>
  </g>
  <path class="c" d="M139.94,14.4h.79v7.18h1.56v.75h-4.24v-.75h1.69v-5.39c0-.17.01-.33.02-.5l-1.41,1.2c-.06.06-.13.08-.21.08-.1,0-.21-.03-.25-.11l-.31-.43,2.36-2.03Z"/>
  <g class="d">
    <path class="b" d="M146.2,18.87h6.15v.73h-6.15v-.73Z"/>
  </g>
  <path class="c" d="M156.08,16.95l.86-.12.42-1.72c.02-.11.09-.19.22-.19h.52l-.23,1.93h1.46l-.08.71h-1.47l-.35,2.75c-.03.28-.07.51-.07.7,0,.42.15.61.49.61.4,0,.55-.26.67-.26.08,0,.1.04.12.1l.21.46c-.31.28-.77.51-1.31.51-.72,0-1.15-.4-1.15-1.26,0-.31.04-.47.08-.79l.34-2.8h-.62c-.1,0-.15-.07-.15-.17,0-.04.04-.44.04-.44Z"/>
  <g class="d">
    <path class="b" d="M160.5,23.65c.69-1.2,1.19-2.65,1.19-4.42s-.51-3.23-1.19-4.42c-.03-.06-.05-.13-.05-.2,0-.04,0-.12.13-.21l.43-.28c.89,1.36,1.54,2.92,1.54,5.1s-.65,3.74-1.54,5.1l-.43-.29c-.09-.05-.13-.11-.13-.2,0-.06.02-.12.05-.2Z"/>
  </g>
  <path class="c" d="M164.29,13.98h.37c.16,0,.25.08.25.25l-.04.65c.28-.46.75-.95,1.44-.95.63,0,.91.48.91,1.11,0,.1,0,.22-.02.33l-.28,2.4h-.75l.28-2.4c.01-.1.01-.19.01-.27,0-.33-.1-.55-.43-.55-.51,0-1,.63-1.22,1.32l-.22,1.9h-.75l.45-3.79Z"/>
  <rect class="c" x="168.16" y="15.41" width="4.2" height=".55"/>
  <path class="c" d="M173.68,13.99h.74l-.45,3.78h-.74l.46-3.78ZM174.17,12.3c.28,0,.5.26.5.51,0,.31-.27.51-.51.51-.26,0-.49-.24-.49-.51,0-.33.32-.51.5-.51Z"/>
  <g class="d">
    <path class="b" d="M179.87,18.56c.35,0,.65.31.65.66s-.3.66-.65.66-.67-.33-.67-.66.31-.66.67-.66Z"/>
  </g>
  <path class="c" d="M184.48,16.95l.86-.12.42-1.72c.02-.11.09-.19.22-.19h.52l-.23,1.93h1.46l-.08.71h-1.47l-.35,2.75c-.03.28-.07.51-.07.7,0,.42.15.61.49.61.4,0,.55-.26.67-.26.08,0,.1.04.12.1l.21.46c-.31.28-.77.51-1.31.51-.72,0-1.15-.4-1.15-1.26,0-.31.04-.47.08-.79l.34-2.8h-.62c-.1,0-.15-.07-.15-.17,0-.04.04-.44.04-.44Z"/>
  <path class="c" d="M189.24,13.99h.74l-.45,3.78h-.74l.46-3.78ZM189.72,12.3c.28,0,.5.26.5.51,0,.31-.27.51-.51.51-.26,0-.49-.24-.49-.51,0-.33.32-.51.5-.51Z"/>
  <path class="c" d="M192.63,21.02c.45,0,.67.33.67.78,0,.94-.53,1.56-1.04,2.02l-.17-.17c-.06-.06-.08-.07-.08-.15,0-.07.03-.12.09-.14.5-.61.55-.85.57-1.04h-.07c-.4,0-.64-.29-.64-.68,0-.36.28-.62.65-.62Z"/>
  <path class="c" d="M196.32,16.95l.86-.12.42-1.72c.02-.11.09-.19.22-.19h.52l-.23,1.93h1.46l-.08.71h-1.47l-.35,2.75c-.03.28-.07.51-.07.7,0,.42.15.61.49.61.4,0,.55-.26.67-.26.08,0,.1.04.12.1l.21.46c-.31.28-.77.51-1.31.51-.72,0-1.15-.4-1.15-1.26,0-.31.04-.47.08-.79l.34-2.8h-.62c-.1,0-.15-.07-.15-.17,0-.04.04-.44.04-.44Z"/>
  <path class="c" d="M206.96,16.16h3.25v.73h-3.2c-1.14,0-2.09.94-2.27,1.99h5.48v.73h-5.49c.19,1.05,1.14,1.99,2.27,1.99h3.21v.73h-3.21c-1.77,0-3.03-1.45-3.03-3.08s1.24-3.08,2.99-3.08Z"/>
  <path class="c" d="M214.99,14.21h2.03v.26c0,.15-.11.27-.28.27h-.98v8.99h.98c.15,0,.28.11.28.27v.26h-2.03v-10.05Z"/>
  <path class="c" d="M220.77,14.33c1.62,0,2.87,1.27,2.87,4.04s-1.37,4.04-2.87,4.04c-1.68,0-2.87-1.34-2.87-4.04s1.25-4.04,2.87-4.04ZM220.77,21.57c1.57,0,1.85-1.87,1.85-3.2,0-1.24-.25-3.21-1.85-3.21s-1.85,1.92-1.85,3.21c0,.76.07,3.2,1.85,3.2Z"/>
  <path class="c" d="M225.2,21.02c.45,0,.67.33.67.78,0,.94-.53,1.56-1.04,2.02l-.17-.17c-.06-.06-.08-.07-.08-.15,0-.07.03-.12.09-.14.5-.61.55-.85.57-1.04h-.07c-.4,0-.64-.29-.64-.68,0-.36.28-.62.65-.62Z"/>
  <path class="c" d="M229.71,14.4h.79v7.18h1.56v.75h-4.24v-.75h1.69v-5.39c0-.17.01-.33.02-.5l-1.41,1.2c-.06.06-.13.08-.21.08-.1,0-.21-.03-.25-.11l-.31-.43,2.36-2.03Z"/>
  <path class="c" d="M233.68,23.73h.98v-8.99h-.98c-.15,0-.28-.11-.28-.27v-.27h2.03v10.05h-2.03v-.26c0-.15.11-.27.28-.27Z"/>
</svg>