<?xml version="1.0" encoding="UTF-8"?>
<svg xmlns="http://www.w3.org/2000/svg" viewBox="0 0 848.43 607.99">
  <defs>
    <style>
      .c {
        fill: #fff;
      }

      .d {
        opacity: .82;
      }

      .e {
        opacity: .15;
      }

      .f {
        opacity: .04;
      }

      .g {
        fill: #2e8cff;
      }
      @media (prefers-color-scheme: dark) {
        .c {
          fill: #000;
        }

        .d, .e, .f {
          fill: #fff;
        }

        .g {
          fill: #489bffff;
        }
      }
    </style>
  </defs>
  <g id="a" data-name="图层 1">
    <rect class="f" x="-.08" width="848.43" height="607.99"/>
    <g class="e">
      <path d="M626.74,44.39H174.64v502h502V44.39h-49.9ZM576.84,47.39h46.9v46.9h-46.9v-46.9ZM623.74,144.19h-46.9v-46.9h46.9v46.9ZM623.74,194.09h-46.9v-46.9h46.9v46.9ZM623.74,243.99h-46.9v-46.9h46.9v46.9ZM623.74,293.89h-46.9v-46.9h46.9v46.9ZM623.74,343.79h-46.9v-46.9h46.9v46.9ZM623.74,393.69h-46.9v-46.9h46.9v46.9ZM623.74,443.59h-46.9v-46.9h46.9v46.9ZM623.74,493.49h-46.9v-46.9h46.9v46.9ZM227.54,446.59h46.9v46.9h-46.9v-46.9ZM227.54,396.69h46.9v46.9h-46.9v-46.9ZM227.54,346.79h46.9v46.9h-46.9v-46.9ZM227.54,296.89h46.9v46.9h-46.9v-46.9ZM227.54,246.99h46.9v46.9h-46.9v-46.9ZM227.54,197.09h46.9v46.9h-46.9v-46.9ZM227.54,147.19h46.9v46.9h-46.9v-46.9ZM227.54,97.29h46.9v46.9h-46.9v-46.9ZM573.84,144.19h-46.9v-46.9h46.9v46.9ZM573.84,194.09h-46.9v-46.9h46.9v46.9ZM573.84,243.99h-46.9v-46.9h46.9v46.9ZM573.84,293.89h-46.9v-46.9h46.9v46.9ZM573.84,343.79h-46.9v-46.9h46.9v46.9ZM573.84,393.69h-46.9v-46.9h46.9v46.9ZM573.84,443.59h-46.9v-46.9h46.9v46.9ZM277.44,396.69h46.9v46.9h-46.9v-46.9ZM277.44,346.79h46.9v46.9h-46.9v-46.9ZM277.44,296.89h46.9v46.9h-46.9v-46.9ZM277.44,246.99h46.9v46.9h-46.9v-46.9ZM277.44,197.09h46.9v46.9h-46.9v-46.9ZM277.44,147.19h46.9v46.9h-46.9v-46.9ZM523.94,194.09h-46.9v-46.9h46.9v46.9ZM523.94,243.99h-46.9v-46.9h46.9v46.9ZM523.94,293.89h-46.9v-46.9h46.9v46.9ZM523.94,343.79h-46.9v-46.9h46.9v46.9ZM523.94,393.69h-46.9v-46.9h46.9v46.9ZM327.34,346.79h46.9v46.9h-46.9v-46.9ZM327.34,296.89h46.9v46.9h-46.9v-46.9ZM327.34,246.99h46.9v46.9h-46.9v-46.9ZM327.34,197.09h46.9v46.9h-46.9v-46.9ZM474.04,243.99h-46.9v-46.9h46.9v46.9ZM474.04,293.89h-46.9v-46.9h46.9v46.9ZM474.04,343.79h-46.9v-46.9h46.9v46.9ZM377.24,296.89h46.9v46.9h-46.9v-46.9ZM377.24,246.99h46.9v46.9h-46.9v-46.9ZM424.14,243.99h-46.9v-46.9h46.9v46.9ZM377.24,346.79h46.9v46.9h-46.9v-46.9ZM427.14,346.79h46.9v46.9h-46.9v-46.9ZM474.04,194.09h-46.9v-46.9h46.9v46.9ZM424.14,194.09h-46.9v-46.9h46.9v46.9ZM374.24,194.09h-46.9v-46.9h46.9v46.9ZM327.34,396.69h46.9v46.9h-46.9v-46.9ZM377.24,396.69h46.9v46.9h-46.9v-46.9ZM427.14,396.69h46.9v46.9h-46.9v-46.9ZM477.04,396.69h46.9v46.9h-46.9v-46.9ZM523.94,144.19h-46.9v-46.9h46.9v46.9ZM474.04,144.19h-46.9v-46.9h46.9v46.9ZM424.14,144.19h-46.9v-46.9h46.9v46.9ZM374.24,144.19h-46.9v-46.9h46.9v46.9ZM324.34,144.19h-46.9v-46.9h46.9v46.9ZM277.44,446.59h46.9v46.9h-46.9v-46.9ZM327.34,446.59h46.9v46.9h-46.9v-46.9ZM377.24,446.59h46.9v46.9h-46.9v-46.9ZM427.14,446.59h46.9v46.9h-46.9v-46.9ZM477.04,446.59h46.9v46.9h-46.9v-46.9ZM526.94,446.59h46.9v46.9h-46.9v-46.9ZM526.94,47.39h46.9v46.9h-46.9v-46.9ZM477.04,47.39h46.9v46.9h-46.9v-46.9ZM427.14,47.39h46.9v46.9h-46.9v-46.9ZM377.24,47.39h46.9v46.9h-46.9v-46.9ZM327.34,47.39h46.9v46.9h-46.9v-46.9ZM277.44,47.39h46.9v46.9h-46.9v-46.9ZM227.54,47.39h46.9v46.9h-46.9v-46.9ZM177.64,47.39h46.9v46.9h-46.9v-46.9ZM177.64,97.29h46.9v46.9h-46.9v-46.9ZM177.64,147.19h46.9v46.9h-46.9v-46.9ZM177.64,197.09h46.9v46.9h-46.9v-46.9ZM177.64,246.99h46.9v46.9h-46.9v-46.9ZM177.64,296.89h46.9v46.9h-46.9v-46.9ZM177.64,346.79h46.9v46.9h-46.9v-46.9ZM177.64,396.69h46.9v46.9h-46.9v-46.9ZM177.64,446.59h46.9v46.9h-46.9v-46.9ZM224.54,543.39h-46.9v-46.9h46.9v46.9ZM274.44,543.39h-46.9v-46.9h46.9v46.9ZM324.34,543.39h-46.9v-46.9h46.9v46.9ZM374.24,543.39h-46.9v-46.9h46.9v46.9ZM424.14,543.39h-46.9v-46.9h46.9v46.9ZM474.04,543.39h-46.9v-46.9h46.9v46.9ZM523.94,543.39h-46.9v-46.9h46.9v46.9ZM573.84,543.39h-46.9v-46.9h46.9v46.9ZM623.74,543.39h-46.9v-46.9h46.9v46.9ZM673.64,543.39h-46.9v-46.9h46.9v46.9ZM673.64,493.49h-46.9v-46.9h46.9v46.9ZM673.64,443.59h-46.9v-46.9h46.9v46.9ZM673.64,393.69h-46.9v-46.9h46.9v46.9ZM673.64,343.79h-46.9v-46.9h46.9v46.9ZM673.64,293.89h-46.9v-46.9h46.9v46.9ZM673.64,243.99h-46.9v-46.9h46.9v46.9ZM673.64,194.09h-46.9v-46.9h46.9v46.9ZM673.64,144.19h-46.9v-46.9h46.9v46.9ZM626.74,94.29v-46.9h46.9v46.9h-46.9Z"/>
    </g>
    <rect class="g" x="176.14" y="44.39" width="499" height="3"/>
    <g>
      <circle class="c" cx="176.14" cy="45.89" r="5.19"/>
      <path class="g" d="M176.14,52.58c-3.69,0-6.69-3-6.69-6.69s3-6.69,6.69-6.69,6.69,3,6.69,6.69-3,6.69-6.69,6.69ZM176.14,42.19c-2.04,0-3.69,1.66-3.69,3.69s1.66,3.69,3.69,3.69,3.69-1.66,3.69-3.69-1.66-3.69-3.69-3.69Z"/>
    </g>
    <g>
      <path class="g" d="M219.07,64.62c0-1.29.13-2.63.39-4.03s.61-2.74,1.07-4.03.98-2.41,1.57-3.35h2.85c-.57,1.22-1.06,2.49-1.48,3.8s-.74,2.62-.96,3.92-.33,2.53-.33,3.69c0,1.03.1,2.07.29,3.11s.49,2.16.9,3.34.94,2.49,1.59,3.93h-2.85c-.99-1.66-1.74-3.38-2.26-5.13s-.77-3.51-.77-5.25Z"/>
      <path class="g" d="M239.8,73.07c-1.41,0-2.61-.35-3.61-1.06s-1.77-1.73-2.3-3.06-.8-2.94-.8-4.83.27-3.5.8-4.84,1.3-2.36,2.3-3.07,2.2-1.07,3.62-1.07,2.61.36,3.61,1.07,1.77,1.73,2.3,3.07.8,2.95.8,4.84-.26,3.49-.79,4.83-1.29,2.36-2.29,3.06-2.21,1.06-3.63,1.06ZM239.8,70.45c.77,0,1.41-.25,1.94-.74s.93-1.21,1.21-2.16.42-2.08.42-3.43-.14-2.5-.42-3.45-.68-1.67-1.21-2.17-1.18-.75-1.93-.75-1.4.25-1.93.75-.93,1.22-1.21,2.17-.42,2.09-.42,3.45.14,2.49.41,3.43.68,1.66,1.21,2.16,1.18.74,1.93.74Z"/>
      <path class="g" d="M248.5,77.33l1.03-7.07h3.14l-2.04,7.07h-2.13Z"/>
      <path class="g" d="M268.67,55.38v17.46h-3.11v-14.67h-.12l-4.08,2.93v-2.98l3.83-2.74h3.47Z"/>
      <path class="g" d="M277.36,75.01c.66-1.47,1.2-2.8,1.61-3.98s.7-2.3.89-3.33.28-2.06.28-3.06c0-1.16-.11-2.39-.33-3.69s-.54-2.6-.96-3.92-.91-2.58-1.49-3.8h2.85c.59.95,1.12,2.06,1.57,3.35s.81,2.63,1.07,4.04.39,2.74.39,4.03c0,1.76-.26,3.52-.77,5.28s-1.27,3.46-2.25,5.1h-2.85Z"/>
    </g>
    <g>
      <rect class="c" x="670.09" y="40.84" width="10.1" height="10.1"/>
      <path class="g" d="M681.69,52.44h-13.1v-13.1h13.1v13.1ZM671.59,49.44h7.1v-7.1h-7.1v7.1Z"/>
    </g>
    <g class="e">
      <path d="M150.06,572.86c-1.37,0-2.56-.28-3.59-.84s-1.83-1.37-2.4-2.43-.86-2.33-.86-3.83c0-1.41.22-2.77.66-4.07s1.08-2.45,1.9-3.47,1.83-1.82,2.99-2.41,2.47-.88,3.92-.88c1.36,0,2.55.28,3.57.84s1.82,1.37,2.4,2.43.86,2.34.86,3.84c0,1.41-.22,2.77-.66,4.07s-1.08,2.45-1.9,3.47-1.82,1.82-2.99,2.41-2.46.88-3.9.88ZM150.18,570.06c1.01,0,1.9-.23,2.67-.7s1.42-1.09,1.95-1.86.93-1.64,1.2-2.59.4-1.9.4-2.85-.16-1.74-.47-2.38-.76-1.12-1.34-1.45-1.25-.49-2.03-.49c-1.01,0-1.9.23-2.67.7s-1.43,1.09-1.96,1.87-.93,1.64-1.21,2.58-.41,1.89-.41,2.85.16,1.73.48,2.37.77,1.13,1.35,1.46,1.26.49,2.04.49Z"/>
    </g>
    <g class="e">
      <path d="M678.47,559.54v17.46h-3.11v-14.67h-.12l-4.08,2.93v-2.98l3.83-2.74h3.47Z"/>
    </g>
    <g class="e">
      <path d="M157.22,35.92v17.46h-3.11v-14.67h-.12l-4.08,2.93v-2.98l3.83-2.74h3.47Z"/>
    </g>
    <rect class="g" x="164.36" y="493.49" width="223.16" height="3" transform="translate(-192.23 175.66) rotate(-26.57)"/>
    <g>
      <circle class="c" cx="375.74" cy="445.09" r="5.19"/>
      <path class="g" d="M375.74,451.78c-3.69,0-6.69-3-6.69-6.69s3-6.69,6.69-6.69,6.69,3,6.69,6.69-3,6.69-6.69,6.69ZM375.74,441.4c-2.04,0-3.69,1.66-3.69,3.69s1.66,3.69,3.69,3.69,3.69-1.66,3.69-3.69-1.66-3.69-3.69-3.69Z"/>
    </g>
    <g>
      <rect class="c" x="171.09" y="539.84" width="10.1" height="10.1"/>
      <path class="g" d="M182.69,551.44h-13.1v-13.1h13.1v13.1ZM172.59,548.44h7.1v-7.1h-7.1v7.1Z"/>
    </g>
    <g>
      <path class="g" d="M427.82,427.11c0-1.29.13-2.63.39-4.03s.61-2.74,1.07-4.03.98-2.41,1.57-3.35h2.85c-.57,1.22-1.06,2.49-1.48,3.8s-.74,2.62-.96,3.92-.33,2.53-.33,3.69c0,1.03.1,2.07.29,3.11s.49,2.16.9,3.34.94,2.49,1.59,3.93h-2.85c-.99-1.66-1.74-3.38-2.26-5.13s-.77-3.51-.77-5.25Z"/>
      <path class="g" d="M448.55,435.56c-1.41,0-2.61-.35-3.61-1.06s-1.77-1.73-2.3-3.06-.8-2.94-.8-4.83.27-3.5.8-4.84,1.3-2.36,2.3-3.07,2.2-1.07,3.62-1.07,2.61.36,3.61,1.07,1.77,1.73,2.3,3.07.8,2.95.8,4.84-.26,3.49-.79,4.83-1.29,2.36-2.29,3.06-2.21,1.06-3.63,1.06ZM448.55,432.93c.77,0,1.41-.25,1.94-.74s.93-1.21,1.21-2.16.42-2.08.42-3.43-.14-2.5-.42-3.45-.68-1.67-1.21-2.17-1.18-.75-1.93-.75-1.4.25-1.93.75-.93,1.22-1.21,2.17-.42,2.09-.42,3.45.14,2.49.41,3.43.68,1.66,1.21,2.16,1.18.74,1.93.74Z"/>
      <path class="g" d="M459.62,435.52c-.52,0-.97-.18-1.33-.54s-.54-.8-.54-1.32.18-.98.54-1.34.81-.54,1.33-.54.98.18,1.34.54.54.8.54,1.34-.18.96-.54,1.32-.81.54-1.34.54Z"/>
      <path class="g" d="M464.71,432.08v-2.5l7.42-11.72h2.06v3.56h-1.25l-5.03,7.93v.14h10.36v2.58h-13.56ZM473.02,435.32v-4l.06-1.14v-12.33h2.94v17.46h-3Z"/>
      <path class="g" d="M480.07,439.81l1.03-7.07h3.14l-2.04,7.07h-2.13Z"/>
      <path class="g" d="M499.75,435.56c-1.41,0-2.61-.35-3.61-1.06s-1.77-1.73-2.3-3.06-.8-2.94-.8-4.83.27-3.5.8-4.84,1.3-2.36,2.3-3.07,2.2-1.07,3.62-1.07,2.61.36,3.61,1.07,1.77,1.73,2.3,3.07.8,2.95.8,4.84-.26,3.49-.79,4.83-1.29,2.36-2.29,3.06-2.21,1.06-3.63,1.06ZM499.75,432.93c.77,0,1.41-.25,1.94-.74s.93-1.21,1.21-2.16.42-2.08.42-3.43-.14-2.5-.42-3.45-.68-1.67-1.21-2.17-1.18-.75-1.93-.75-1.4.25-1.93.75-.93,1.22-1.21,2.17-.42,2.09-.42,3.45.14,2.49.41,3.43.68,1.66,1.21,2.16,1.18.74,1.93.74Z"/>
      <path class="g" d="M510.82,435.52c-.52,0-.97-.18-1.33-.54s-.54-.8-.54-1.32.18-.98.54-1.34.81-.54,1.33-.54.98.18,1.34.54.54.8.54,1.34-.18.96-.54,1.32-.81.54-1.34.54Z"/>
      <path class="g" d="M516.23,435.32v-2.25l6.06-5.96c.57-.59,1.05-1.11,1.44-1.56s.68-.89.88-1.32.3-.89.3-1.39c0-.55-.13-1.02-.38-1.42s-.6-.71-1.03-.92-.93-.32-1.48-.32c-.59,0-1.1.12-1.53.35s-.77.57-1,1-.35.95-.35,1.55h-2.99c0-1.1.25-2.06.76-2.88s1.2-1.46,2.09-1.9,1.91-.67,3.06-.67,2.19.22,3.07.66,1.57,1.04,2.06,1.8.74,1.63.74,2.61c0,.65-.12,1.28-.36,1.9s-.68,1.31-1.3,2.09-1.51,1.71-2.65,2.81l-3.04,3.09v.13h7.61v2.61h-11.94Z"/>
      <path class="g" d="M536.56,437.49c.66-1.47,1.2-2.8,1.61-3.98s.7-2.3.89-3.33.28-2.06.28-3.06c0-1.16-.11-2.39-.33-3.69s-.54-2.6-.96-3.92-.91-2.58-1.49-3.8h2.85c.59.95,1.12,2.06,1.57,3.35s.81,2.63,1.07,4.04.39,2.74.39,4.03c0,1.76-.26,3.52-.77,5.28s-1.27,3.46-2.25,5.1h-2.85Z"/>
    </g>
    <polygon class="e" points="263.69 576.11 262.03 573.61 270.99 567.63 226.04 567.63 226.04 564.63 280.89 564.63 263.69 576.11"/>
    <g class="e">
      <path d="M287.75,575.63l6.41-7.91-.4,2.37-3.59-7.56h3.26l.97,2.23c.29.66.53,1.31.72,1.95s.4,1.25.62,1.84h-1.25c.42-.59.83-1.2,1.23-1.83s.85-1.29,1.36-1.95l1.75-2.23h3.38l-6.15,7.61.38-2.31,3.81,7.8h-3.26l-1.18-2.62c-.29-.66-.53-1.31-.73-1.93s-.41-1.22-.63-1.79h1.27c-.41.57-.8,1.17-1.2,1.79s-.84,1.27-1.34,1.93l-2.05,2.62h-3.36Z"/>
    </g>
    <polygon class="e" points="151.51 494.99 148.51 494.99 148.51 450.04 142.53 459 140.03 457.34 151.51 440.14 151.51 494.99"/>
    <g class="e">
      <path d="M142.58,424.82l1.1-2.38.34.09c.45.11.87.14,1.24.08s.7-.21.98-.47.52-.63.7-1.12l.33-.83-2.78-13.15h3.15l1.23,7.12c.13.84.22,1.67.26,2.51s.1,1.7.17,2.57h-.8c.36-.88.71-1.73,1.06-2.57s.73-1.68,1.15-2.51l3.66-7.12h3.32l-8.07,14.79c-.38.7-.8,1.29-1.29,1.78s-1.04.87-1.66,1.13-1.33.39-2.12.39c-.41,0-.8-.03-1.15-.09s-.63-.14-.83-.22Z"/>
    </g>
    <g>
      <path class="g" d="M396.39,435.32v-17.46h6.53c1.34,0,2.46.25,3.38.75s1.61,1.19,2.07,2.06.7,1.86.7,2.97-.24,2.11-.71,2.98-1.17,1.55-2.09,2.05-2.05.75-3.4.75h-4.32v-2.58h3.91c.79,0,1.44-.14,1.94-.41s.88-.65,1.11-1.14.36-1.04.36-1.65-.12-1.16-.36-1.64-.61-.85-1.12-1.11-1.16-.4-1.96-.4h-2.92v14.84h-3.13Z"/>
      <path class="g" d="M415.78,433.14v10.18h-2.76v-7.8h-.07l-2.23,1.5v-2.35l2.28-1.53h2.77Z"/>
    </g>
    <g>
      <path class="g" d="M185.55,72.84v-17.46h6.53c1.34,0,2.46.25,3.38.75s1.61,1.19,2.07,2.06.7,1.86.7,2.97-.24,2.11-.71,2.98-1.17,1.55-2.09,2.05-2.05.75-3.4.75h-4.32v-2.58h3.91c.79,0,1.44-.14,1.94-.41s.88-.65,1.11-1.14.36-1.04.36-1.65-.12-1.16-.36-1.64-.61-.85-1.12-1.11-1.16-.4-1.96-.4h-2.92v14.84h-3.13Z"/>
      <path class="g" d="M199.94,80.83v-1.98l3.8-3.14c.25-.21.47-.41.65-.59.18-.18.32-.37.42-.57.1-.2.15-.41.15-.66,0-.26-.06-.48-.17-.67-.11-.18-.26-.33-.46-.43-.19-.1-.42-.15-.67-.15s-.48.05-.67.15c-.19.1-.34.25-.45.45s-.16.44-.16.72h-2.62c0-.71.16-1.33.48-1.84s.78-.91,1.36-1.19c.59-.28,1.28-.42,2.06-.42s1.52.13,2.12.39c.6.26,1.06.62,1.38,1.1.33.47.49,1.02.49,1.66,0,.39-.08.78-.24,1.17s-.45.81-.87,1.28c-.42.47-1.02,1.02-1.8,1.67l-.96.79v.07h3.98v2.2h-7.82Z"/>
    </g>
  </g>
  <g id="b" data-name="图层 2">
    <path class="d" d="M176.81,546.23l-1.34-2.68c73.68-36.84,92.68-115.57,112.8-198.91,17.33-71.81,35.25-146.06,88.44-203.39,28.82-31.07,64.93-53.96,110.38-69.98,50.62-17.83,113.89-26.88,188.05-26.88v3c-73.82,0-136.76,8.99-187.05,26.71-44.98,15.85-80.7,38.48-109.18,69.19-52.66,56.76-70.48,130.63-87.72,202.06-20.28,84.04-39.44,163.42-114.37,200.89Z"/>
  </g>
</svg>