<?xml version="1.0" encoding="UTF-8"?>
<svg xmlns="http://www.w3.org/2000/svg" xmlns:xlink="http://www.w3.org/1999/xlink" viewBox="0 0 848.43 607.99">
  <defs>
    <style>
      .d {
        fill: none;
      }

      .e {
        fill: url(#b);
      }

      .f {
        fill: #ff8b00;
      }

      .g {
        fill: #7e3bff;
      }

      .h {
        opacity: .82;
      }

      .i {
        opacity: .15;
      }

      .j {
        opacity: .04;
      }
      @media (prefers-color-scheme: dark) {
        .h, .i, .j {
          fill: #fff;
        }
        .f {
          fill: #ffa245ff;
        }
        .g {
          fill: #9d7cffff;
        }
      }
    </style>
    <pattern id="b" data-name="10 lpi 30%" x="0" y="0" width="72" height="72" patternTransform="translate(-130.69 -259.23)" patternUnits="userSpaceOnUse" viewBox="0 0 72 72">
      <g>
        <rect class="d" width="72" height="72"/>
        <g>
          <rect class="f" x="2.1" y="71.75" width="3" height="72.5"/>
          <rect class="f" x="16.5" y="71.75" width="3" height="72.5"/>
          <rect class="f" x="30.9" y="71.75" width="3" height="72.5"/>
          <rect class="f" x="45.3" y="71.75" width="3" height="72.5"/>
          <rect class="f" x="59.7" y="71.75" width="3" height="72.5"/>
        </g>
        <g>
          <rect class="f" x="2.1" y="-.25" width="3" height="72.5"/>
          <rect class="f" x="16.5" y="-.25" width="3" height="72.5"/>
          <rect class="f" x="30.9" y="-.25" width="3" height="72.5"/>
          <rect class="f" x="45.3" y="-.25" width="3" height="72.5"/>
          <rect class="f" x="59.7" y="-.25" width="3" height="72.5"/>
        </g>
        <g>
          <rect class="f" x="2.1" y="-72.25" width="3" height="72.5"/>
          <rect class="f" x="16.5" y="-72.25" width="3" height="72.5"/>
          <rect class="f" x="30.9" y="-72.25" width="3" height="72.5"/>
          <rect class="f" x="45.3" y="-72.25" width="3" height="72.5"/>
          <rect class="f" x="59.7" y="-72.25" width="3" height="72.5"/>
        </g>
      </g>
    </pattern>
  </defs>
  <g id="a" data-name="图层 1">
    <rect class="j" x="-.08" width="848.43" height="607.99"/>
    <g class="i">
      <path d="M676.64,44.39H174.64v502h551.9V44.39h-49.9ZM224.54,543.39h-46.9v-46.9h46.9v46.9ZM224.54,493.49h-46.9v-46.9h46.9v46.9ZM224.54,443.59h-46.9v-46.9h46.9v46.9ZM224.54,393.69h-46.9v-46.9h46.9v46.9ZM224.54,343.79h-46.9v-46.9h46.9v46.9ZM224.54,293.89h-46.9v-46.9h46.9v46.9ZM224.54,243.99h-46.9v-46.9h46.9v46.9ZM224.54,194.09h-46.9v-46.9h46.9v46.9ZM224.54,144.19h-46.9v-46.9h46.9v46.9ZM224.54,94.29h-46.9v-46.9h46.9v46.9ZM274.44,543.39h-46.9v-46.9h46.9v46.9ZM274.44,493.49h-46.9v-46.9h46.9v46.9ZM274.44,443.59h-46.9v-46.9h46.9v46.9ZM274.44,393.69h-46.9v-46.9h46.9v46.9ZM274.44,343.79h-46.9v-46.9h46.9v46.9ZM274.44,293.89h-46.9v-46.9h46.9v46.9ZM274.44,243.99h-46.9v-46.9h46.9v46.9ZM274.44,194.09h-46.9v-46.9h46.9v46.9ZM274.44,144.19h-46.9v-46.9h46.9v46.9ZM274.44,94.29h-46.9v-46.9h46.9v46.9ZM324.34,543.39h-46.9v-46.9h46.9v46.9ZM324.34,493.49h-46.9v-46.9h46.9v46.9ZM324.34,443.59h-46.9v-46.9h46.9v46.9ZM324.34,393.69h-46.9v-46.9h46.9v46.9ZM324.34,343.79h-46.9v-46.9h46.9v46.9ZM324.34,293.89h-46.9v-46.9h46.9v46.9ZM324.34,243.99h-46.9v-46.9h46.9v46.9ZM324.34,194.09h-46.9v-46.9h46.9v46.9ZM324.34,144.19h-46.9v-46.9h46.9v46.9ZM324.34,94.29h-46.9v-46.9h46.9v46.9ZM374.24,543.39h-46.9v-46.9h46.9v46.9ZM374.24,493.49h-46.9v-46.9h46.9v46.9ZM374.24,443.59h-46.9v-46.9h46.9v46.9ZM374.24,393.69h-46.9v-46.9h46.9v46.9ZM374.24,343.79h-46.9v-46.9h46.9v46.9ZM374.24,293.89h-46.9v-46.9h46.9v46.9ZM374.24,243.99h-46.9v-46.9h46.9v46.9ZM374.24,194.09h-46.9v-46.9h46.9v46.9ZM374.24,144.19h-46.9v-46.9h46.9v46.9ZM374.24,94.29h-46.9v-46.9h46.9v46.9ZM424.14,543.39h-46.9v-46.9h46.9v46.9ZM424.14,493.49h-46.9v-46.9h46.9v46.9ZM424.14,443.59h-46.9v-46.9h46.9v46.9ZM424.14,393.69h-46.9v-46.9h46.9v46.9ZM424.14,343.79h-46.9v-46.9h46.9v46.9ZM424.14,293.89h-46.9v-46.9h46.9v46.9ZM424.14,243.99h-46.9v-46.9h46.9v46.9ZM424.14,194.09h-46.9v-46.9h46.9v46.9ZM424.14,144.19h-46.9v-46.9h46.9v46.9ZM424.14,94.29h-46.9v-46.9h46.9v46.9ZM474.04,543.39h-46.9v-46.9h46.9v46.9ZM474.04,493.49h-46.9v-46.9h46.9v46.9ZM474.04,443.59h-46.9v-46.9h46.9v46.9ZM474.04,393.69h-46.9v-46.9h46.9v46.9ZM474.04,343.79h-46.9v-46.9h46.9v46.9ZM474.04,293.89h-46.9v-46.9h46.9v46.9ZM474.04,243.99h-46.9v-46.9h46.9v46.9ZM474.04,194.09h-46.9v-46.9h46.9v46.9ZM474.04,144.19h-46.9v-46.9h46.9v46.9ZM474.04,94.29h-46.9v-46.9h46.9v46.9ZM523.94,543.39h-46.9v-46.9h46.9v46.9ZM523.94,493.49h-46.9v-46.9h46.9v46.9ZM523.94,443.59h-46.9v-46.9h46.9v46.9ZM523.94,393.69h-46.9v-46.9h46.9v46.9ZM523.94,343.79h-46.9v-46.9h46.9v46.9ZM523.94,293.89h-46.9v-46.9h46.9v46.9ZM523.94,243.99h-46.9v-46.9h46.9v46.9ZM523.94,194.09h-46.9v-46.9h46.9v46.9ZM523.94,144.19h-46.9v-46.9h46.9v46.9ZM523.94,94.29h-46.9v-46.9h46.9v46.9ZM573.84,543.39h-46.9v-46.9h46.9v46.9ZM573.84,493.49h-46.9v-46.9h46.9v46.9ZM573.84,443.59h-46.9v-46.9h46.9v46.9ZM573.84,393.69h-46.9v-46.9h46.9v46.9ZM573.84,343.79h-46.9v-46.9h46.9v46.9ZM573.84,293.89h-46.9v-46.9h46.9v46.9ZM573.84,243.99h-46.9v-46.9h46.9v46.9ZM573.84,194.09h-46.9v-46.9h46.9v46.9ZM573.84,144.19h-46.9v-46.9h46.9v46.9ZM573.84,94.29h-46.9v-46.9h46.9v46.9ZM623.74,543.39h-46.9v-46.9h46.9v46.9ZM623.74,493.49h-46.9v-46.9h46.9v46.9ZM623.74,443.59h-46.9v-46.9h46.9v46.9ZM623.74,393.69h-46.9v-46.9h46.9v46.9ZM623.74,343.79h-46.9v-46.9h46.9v46.9ZM623.74,293.89h-46.9v-46.9h46.9v46.9ZM623.74,243.99h-46.9v-46.9h46.9v46.9ZM623.74,194.09h-46.9v-46.9h46.9v46.9ZM623.74,144.19h-46.9v-46.9h46.9v46.9ZM623.74,94.29h-46.9v-46.9h46.9v46.9ZM673.64,543.39h-46.9v-46.9h46.9v46.9ZM673.64,493.49h-46.9v-46.9h46.9v46.9ZM673.64,443.59h-46.9v-46.9h46.9v46.9ZM673.64,393.69h-46.9v-46.9h46.9v46.9ZM673.64,343.79h-46.9v-46.9h46.9v46.9ZM673.64,293.89h-46.9v-46.9h46.9v46.9ZM673.64,243.99h-46.9v-46.9h46.9v46.9ZM673.64,194.09h-46.9v-46.9h46.9v46.9ZM673.64,144.19h-46.9v-46.9h46.9v46.9ZM673.64,94.29h-46.9v-46.9h46.9v46.9ZM723.54,543.39h-46.9v-46.9h46.9v46.9ZM723.54,493.49h-46.9v-46.9h46.9v46.9ZM723.54,443.59h-46.9v-46.9h46.9v46.9ZM723.54,393.69h-46.9v-46.9h46.9v46.9ZM723.54,343.79h-46.9v-46.9h46.9v46.9ZM723.54,293.89h-46.9v-46.9h46.9v46.9ZM723.54,243.99h-46.9v-46.9h46.9v46.9ZM723.54,194.09h-46.9v-46.9h46.9v46.9ZM723.54,144.19h-46.9v-46.9h46.9v46.9ZM723.54,94.29h-46.9v-46.9h46.9v46.9Z"/>
    </g>
    <g>
      <path class="e" d="M176.14,544.89c199.6-99.8,0-499,499-499h49.9c-499,0-299.4,399.2-499,499h-49.9Z"/>
      <path class="h" d="M226.39,546.39h-51.75v-2.43s.83-.41.83-.41c73.68-36.84,92.68-115.57,112.8-198.91,17.33-71.81,35.25-146.06,88.44-203.39,28.82-31.07,64.93-53.96,110.38-69.98,50.62-17.83,113.89-26.88,188.05-26.88h49.9v3c-73.82,0-136.76,8.99-187.05,26.71-44.98,15.85-80.7,38.48-109.18,69.19-52.66,56.76-70.48,130.63-87.72,202.06-20.28,84.04-39.44,163.42-114.37,200.89l-.32.16ZM182.24,543.39h43.44c73.43-36.91,92.4-115.52,112.48-198.75,17.33-71.81,35.25-146.06,88.44-203.39,28.82-31.07,64.93-53.96,110.38-69.98,32.86-11.58,71.05-19.45,114.09-23.55-63.51,1.76-118.25,10.61-163,26.38-44.98,15.85-80.7,38.48-109.18,69.19-52.66,56.76-70.48,130.63-87.72,202.06-19.78,81.98-38.5,159.52-108.94,198.05Z"/>
    </g>
    <g class="i">
      <path d="M150.06,572.86c-1.37,0-2.56-.28-3.59-.84s-1.83-1.37-2.4-2.43-.86-2.33-.86-3.83c0-1.41.22-2.77.66-4.07s1.08-2.45,1.9-3.47,1.83-1.82,2.99-2.41,2.47-.88,3.92-.88c1.36,0,2.55.28,3.57.84s1.82,1.37,2.4,2.43.86,2.34.86,3.84c0,1.41-.22,2.77-.66,4.07s-1.08,2.45-1.9,3.47-1.82,1.82-2.99,2.41-2.46.88-3.9.88ZM150.18,570.06c1.01,0,1.9-.23,2.67-.7s1.42-1.09,1.95-1.86.93-1.64,1.2-2.59.4-1.9.4-2.85-.16-1.74-.47-2.38-.76-1.12-1.34-1.45-1.25-.49-2.03-.49c-1.01,0-1.9.23-2.67.7s-1.43,1.09-1.96,1.87-.93,1.64-1.21,2.58-.41,1.89-.41,2.85.16,1.73.48,2.37.77,1.13,1.35,1.46,1.26.49,2.04.49Z"/>
    </g>
    <g class="i">
      <path d="M678.47,559.54v17.46h-3.11v-14.67h-.12l-4.08,2.93v-2.98l3.83-2.74h3.47Z"/>
    </g>
    <g class="i">
      <path d="M157.22,35.92v17.46h-3.11v-14.67h-.12l-4.08,2.93v-2.98l3.83-2.74h3.47Z"/>
    </g>
    <polygon class="i" points="263.69 576.11 262.03 573.61 270.99 567.63 226.04 567.63 226.04 564.63 280.89 564.63 263.69 576.11"/>
    <g class="i">
      <path d="M287.75,575.63l6.41-7.91-.4,2.37-3.59-7.56h3.26l.97,2.23c.29.66.53,1.31.72,1.95s.4,1.25.62,1.84h-1.25c.42-.59.83-1.2,1.23-1.83s.85-1.29,1.36-1.95l1.75-2.23h3.38l-6.15,7.61.38-2.31,3.81,7.8h-3.26l-1.18-2.62c-.29-.66-.53-1.31-.73-1.93s-.41-1.22-.63-1.79h1.27c-.41.57-.8,1.17-1.2,1.79s-.84,1.27-1.34,1.93l-2.05,2.62h-3.36Z"/>
    </g>
    <polygon class="i" points="151.51 494.99 148.51 494.99 148.51 450.04 142.53 459 140.03 457.34 151.51 440.14 151.51 494.99"/>
    <g class="i">
      <path d="M142.58,424.82l1.1-2.38.34.09c.45.11.87.14,1.24.08s.7-.21.98-.47.52-.63.7-1.12l.33-.83-2.78-13.15h3.15l1.23,7.12c.13.84.22,1.67.26,2.51s.1,1.7.17,2.57h-.8c.36-.88.71-1.73,1.06-2.57s.73-1.68,1.15-2.51l3.66-7.12h3.32l-8.07,14.79c-.38.7-.8,1.29-1.29,1.78s-1.04.87-1.66,1.13-1.33.39-2.12.39c-.41,0-.8-.03-1.15-.09s-.63-.14-.83-.22Z"/>
    </g>
  </g>
  <g id="c" data-name="图层 2">
    <g>
      <rect class="g" x="181.46" y="540.74" width="3" height="2.65"/>
      <rect class="g" x="196" y="531.64" width="3" height="11.75"/>
      <rect class="g" x="209.88" y="520.75" width="3" height="22.64"/>
      <rect class="g" x="224.54" y="508.82" width="3" height="34.57"/>
      <rect class="g" x="238.08" y="494.6" width="3" height="48.76"/>
      <rect class="g" x="253.67" y="475.85" width="3" height="67.51"/>
      <rect class="g" x="267.02" y="455.03" width="3" height="88.33"/>
      <rect class="g" x="281.99" y="421.32" width="3" height="122.03"/>
      <rect class="g" x="296.13" y="381.14" width="3" height="162.22"/>
      <rect class="g" x="311.11" y="366.51" width="3" height="176.85"/>
      <rect class="g" x="324.34" y="369.29" width="3" height="174.07"/>
      <rect class="g" x="338.79" y="392.09" width="3" height="151.27"/>
      <rect class="g" x="353" y="433.48" width="3" height="109.88"/>
      <rect class="g" x="366.93" y="455.14" width="3" height="88.22"/>
      <rect class="g" x="381.77" y="470.82" width="3" height="72.54"/>
      <rect class="g" x="396.7" y="482.9" width="3" height="60.46"/>
      <rect class="g" x="410.47" y="491.23" width="3" height="52.13"/>
      <rect class="g" x="424.87" y="499.08" width="3" height="44.27"/>
      <rect class="g" x="439.7" y="505.54" width="3" height="37.82"/>
      <rect class="g" x="454.11" y="510.78" width="3" height="32.58"/>
      <rect class="g" x="468.65" y="516.03" width="3" height="27.33"/>
      <rect class="g" x="483.08" y="520.25" width="3" height="23.11"/>
      <rect class="g" x="497.55" y="523.43" width="3" height="19.92"/>
      <rect class="g" x="510.92" y="526.24" width="3" height="17.11"/>
      <rect class="g" x="523.94" y="530" width="3" height="13.36"/>
      <rect class="g" x="538.58" y="532.41" width="3" height="10.98"/>
      <rect class="g" x="555.26" y="534.7" width="3" height="8.66"/>
      <rect class="g" x="569.3" y="536.03" width="3" height="7.33"/>
      <rect class="g" x="583.76" y="537.48" width="3" height="5.88"/>
      <rect class="g" x="598.25" y="538.54" width="3" height="4.82"/>
      <rect class="g" x="612.65" y="539.65" width="3" height="3.71"/>
      <rect class="g" x="626.9" y="540.68" width="3" height="2.68"/>
      <rect class="g" x="641.5" y="541.56" width="3" height="1.8"/>
      <rect class="g" x="656.1" y="542.26" width="3" height="1.09"/>
    </g>
    <path class="h" d="M725.04,546.39c-343.75-.76-370.16-96.06-384.35-147.26-5.19-18.74-8.62-31.12-25.31-31.12-12.91,0-17.02,12.85-23.83,34.15-11.32,35.41-30.27,94.69-114.66,144.02l-1.51-2.59c36.76-21.49,64.11-46.33,83.62-75.93,16.45-24.96,23.8-47.95,29.7-66.42,6.98-21.82,11.58-36.24,26.69-36.24,18.96,0,22.84,13.97,28.2,33.32,7.18,25.89,17,61.36,67.61,91.1,27.85,16.37,65.45,29.16,111.76,38.03,54.28,10.4,122.27,15.76,202.09,15.93v3Z"/>
  </g>
</svg>