<?xml version="1.0" encoding="UTF-8"?>
<svg id="a" xmlns="http://www.w3.org/2000/svg" viewBox="0 0 32 32">
<defs>
<style>
.b{opacity:.1;}.c{opacity:.87;}.d{fill:#0e1116;}.d,.e{stroke-width:0px;}.e{fill:#00182b;}
@media (prefers-color-scheme: dark) {
.b{opacity:.12;}.c{opacity:.82;}.d{fill:#fdfeff;}.d,.e{stroke-width:0px;}.e{fill:#c5f0ff;}
}
</style>
</defs>
<g class="c"><rect class="d" x="17.55" y="8.14" width="3.86" height="5.82"/><rect class="d" x="9.14" y="20" width="3.86" height="3.85"/><polygon class="d" points="24.25 8.14 24.25 9.3 24.25 10.45 24.25 15.14 27.87 12.54 27.87 10.45 27.87 9.3 27.87 8.14 24.25 8.14"/><polygon class="d" points="13.93 10.37 12.52 8.14 9.14 8.14 9.14 8.14 7.86 8.14 7.86 12.01 9.14 12.01 9.14 13.97 11.72 13.97 17.44 22.93 17.44 22.93 18.03 23.86 21.41 23.86 21.41 20 20.08 20 13.93 10.37"/></g><g class="b"><polygon class="e" points="11.72 13.97 9.14 13.97 0 13.97 0 20 9.14 20 13 20 15.57 20 11.72 13.97"/><polygon class="e" points="25.89 13.97 24.25 15.14 24.25 13.97 21.41 13.97 17.55 13.97 16.23 13.97 20.08 20 21.41 20 32 20 32 13.97 25.89 13.97"/></g></svg>