<?xml version="1.0" encoding="UTF-8"?><svg id="a" xmlns="http://www.w3.org/2000/svg" viewBox="0 0 32 32"><defs>
<style>
.b{opacity:.1;}.c{opacity:.87;}.d{fill:#0e1116;}.d,.e{stroke-width:0px;}.e{fill:#00182b;}
@media (prefers-color-scheme: dark) {
.b{opacity:.12;}.c{opacity:.82;}.d{fill:#fdfeff;}.d,.e{stroke-width:0px;}.e{fill:#c5f0ff;}
}
</style></defs><g class="c"><rect class="d" x="15.97" y="6" width="4.92" height="7.41"/><rect class="d" x="5.27" y="21.1" width="4.92" height="4.9"/><polygon class="d" points="24.51 6 24.51 7.46 24.51 8.93 24.51 14.91 29.11 11.59 29.11 8.93 29.11 7.46 29.11 6 24.51 6"/><polygon class="d" points="11.37 8.83 9.56 6 5.27 6 5.27 6 3.64 6 3.64 10.93 5.27 10.93 5.27 13.41 8.55 13.41 15.84 24.82 15.84 24.82 16.59 26 20.88 26 20.88 21.1 19.19 21.1 11.37 8.83"/></g><g class="b"><polygon class="e" points="8.55 13.41 5.27 13.41 0 13.41 0 21.1 5.27 21.1 10.18 21.1 13.46 21.1 8.55 13.41"/><polygon class="e" points="26.59 13.41 24.51 14.91 24.51 13.41 20.88 13.41 15.97 13.41 14.29 13.41 19.19 21.1 20.88 21.1 32 21.1 32 13.41 26.59 13.41"/></g></svg>