<?xml version="1.0" encoding="UTF-8"?>
<svg id="a" xmlns="http://www.w3.org/2000/svg" width="180.14" height="78.99" viewBox="0 0 180.14 78.99">
  <g id="b">
    <g>
      <g style="opacity: .1;">
        <rect x="101.44" y="11.08" width="7.87" height=".73" style="fill: #00182b; stroke-width: 0px;"/>
        <rect x="101.44" y="18.41" width="7.87" height="4.31" style="fill: #00182b; stroke-width: 0px;"/>
        <path d="M36.96,22.72h5.67c-.59-2.28-.55-4.81-.55-7.44,0-1.44,0-2.84.07-4.2h-15.33l7.42,11.64h2.72Z" style="fill: #00182b; stroke-width: 0px;"/>
        <path d="M82.32,22.72h11.72v-11.64h-44.41c-.09,1-.14,2.34-.14,4.2,0,5.49.42,6.46,1.1,7.35.02.03.05.06.08.09h31.65Z" style="fill: #00182b; stroke-width: 0px;"/>
        <polygon points="169.24 11.08 165.28 13.93 165.28 13.36 165.28 11.44 165.28 11.08 159.82 11.08 152.42 11.08 149.69 11.08 157.11 22.72 159.82 22.72 180 22.72 180 11.08 169.24 11.08" style="fill: #00182b; stroke-width: 0px;"/>
        <polygon points="18.22 11.08 13.45 11.08 0 11.08 0 22.72 13.45 22.72 20.85 22.72 25.65 22.72 25.65 22.72 18.22 11.08" style="fill: #00182b; stroke-width: 0px;"/>
        <polygon points="136.3 11.08 130.21 11.08 122.81 11.08 116.72 11.08 116.72 22.72 122.81 22.72 130.21 22.72 136.3 22.72 143.71 22.72 148.5 22.72 141.08 11.08 136.3 11.08" style="fill: #00182b; stroke-width: 0px;"/>
      </g>
      <g style="opacity: .87;">
        <polygon points="36.96 22.72 34.25 22.72 26.83 11.08 19.92 .25 19.92 .25 19.92 .25 16.95 .25 16.95 .24 11.04 .24 11.04 7.63 13.45 7.63 13.45 11.08 18.22 11.08 25.65 22.72 25.65 22.72 30.49 30.32 30.5 30.32 36.96 30.32 36.97 30.32 36.96 26.98 36.96 22.72" style="fill: #0e1116; stroke-width: 0px;"/>
        <rect x="13.45" y="22.72" width="7.4" height="7.6" style="fill: #0e1116; stroke-width: 0px;"/>
        <rect x="29.56" y=".25" width="7.4" height="10.84" style="fill: #0e1116; stroke-width: 0px;"/>
        <path d="M50.59,7.89c.55-.72,1.61-1.31,2.96-1.31s2.41.59,2.96,1.31c.45.59.78,1.24.96,3.2h7.47c-.18-2.9-.81-5.55-2.97-7.71-2.2-2.2-4.74-3.38-8.42-3.38s-6.22,1.18-8.42,3.38c-2.17,2.16-2.79,4.81-2.97,7.71-.08,1.35-.07,2.76-.07,4.2,0,2.63-.04,5.16.55,7.44.42,1.64,1.17,3.15,2.5,4.47,2.2,2.2,4.74,3.38,8.42,3.38s6.22-1.18,8.42-3.38c1.33-1.32,2.07-2.84,2.49-4.47h-8.03c-.57.68-1.59,1.26-2.88,1.26s-2.32-.58-2.88-1.26c-.03-.03-.05-.06-.08-.09-.68-.89-1.1-1.86-1.1-7.35,0-1.86.05-3.2.14-4.2.18-1.96.51-2.61.96-3.2h0Z" style="fill: #0e1116; stroke-width: 0px;"/>
        <polygon points="74.92 11.08 82.32 11.08 82.32 6.83 82.32 6.83 89.73 6.83 89.73 .25 67.51 .25 67.51 6.83 74.92 6.83 74.92 11.08" style="fill: #0e1116; stroke-width: 0px;"/>
        <rect x="74.92" y="22.72" width="7.4" height="7.6" style="fill: #0e1116; stroke-width: 0px;"/>
        <rect x="122.81" y=".25" width="7.4" height="10.84" style="fill: #0e1116; stroke-width: 0px;"/>
        <rect x="122.81" y="22.72" width="7.4" height="7.6" style="fill: #0e1116; stroke-width: 0px;"/>
        <rect x="152.42" y=".25" width="7.4" height="10.84" style="fill: #0e1116; stroke-width: 0px;"/>
        <rect x="136.3" y="22.72" width="7.4" height="7.6" style="fill: #0e1116; stroke-width: 0px;"/>
        <polygon points="165.28 .25 165.28 2.22 165.28 11.08 165.28 11.44 165.28 13.36 165.28 13.93 169.24 11.08 172.22 8.95 172.22 6.46 172.22 .25 165.28 .25" style="fill: #0e1116; stroke-width: 0px;"/>
        <polygon points="149.69 11.08 142.78 .25 140.27 .25 140.27 .24 134.36 .24 134.36 7.63 136.3 7.63 136.3 11.08 141.08 11.08 148.5 22.72 153.35 30.32 159.82 30.32 159.82 26.98 159.82 22.72 157.11 22.72 149.69 11.08" style="fill: #0e1116; stroke-width: 0px;"/>
        <polygon points="109.31 11.08 109.31 11.82 101.44 11.82 101.44 11.08 101.44 .25 94.04 .25 94.04 11.08 94.04 22.72 94.04 30.32 101.44 30.32 101.44 22.72 101.44 18.41 109.31 18.41 109.31 22.72 109.31 30.32 116.72 30.32 116.72 22.72 116.72 11.08 116.72 .25 109.31 .25 109.31 11.08" style="fill: #0e1116; stroke-width: 0px;"/>
        <rect x="28.72" y="48.91" width="7.4" height="10.84" style="fill: #0e1116; stroke-width: 0px;"/>
        <rect x="13.45" y="48.91" width="7.4" height="10.84" style="fill: #0e1116; stroke-width: 0px;"/>
        <rect x="28.72" y="71.39" width="7.4" height="7.6" style="fill: #0e1116; stroke-width: 0px;"/>
        <rect x="13.45" y="71.39" width="7.4" height="7.6" style="fill: #0e1116; stroke-width: 0px;"/>
        <polygon points="42.22 59.75 49.62 59.75 49.62 55.5 62.69 55.5 62.69 48.91 42.22 48.91 42.22 59.75" style="fill: #0e1116; stroke-width: 0px;"/>
        <polygon points="49.62 71.39 42.22 71.39 42.22 78.99 62.69 78.99 62.69 72.4 49.62 72.4 49.62 71.39" style="fill: #0e1116; stroke-width: 0px;"/>
        <polygon points="87.8 71.39 79.55 71.39 83.16 78.99 91.75 78.99 87.8 71.39" style="fill: #0e1116; stroke-width: 0px;"/>
        <path d="M82.74,58.59c0,.4-.08.8-.23,1.16h7.56c.05-.38.08-.76.08-1.17,0-4.94-3.59-9.67-10.28-9.67h-11.93v30.08h7.4v-23.44h4.19c2.03,0,3.22,1.48,3.22,3.04,0,0-.01,0-.01,0Z" style="fill: #0e1116; stroke-width: 0px;"/>
        <polygon points="95.52 59.75 102.92 59.75 102.92 55.5 115.99 55.5 115.99 48.91 95.52 48.91 95.52 59.75" style="fill: #0e1116; stroke-width: 0px;"/>
        <polygon points="102.92 71.39 95.52 71.39 95.52 78.99 115.99 78.99 115.99 72.4 102.92 72.4 102.92 71.39" style="fill: #0e1116; stroke-width: 0px;"/>
      </g>
      <g style="opacity: .1;">
        <polygon points="49.62 71.39 67.93 71.39 67.93 59.75 49.62 59.75 42.22 59.75 36.12 59.75 28.72 59.75 20.85 59.75 13.45 59.75 0 59.75 0 71.39 13.45 71.39 20.85 71.39 28.72 71.39 36.12 71.39 42.22 71.39 49.62 71.39" style="fill: #00182b; stroke-width: 0px;"/>
        <polygon points="102.92 59.75 95.52 59.75 90.06 59.75 82.51 59.75 75.34 59.75 75.34 67.8 75.34 71.39 79.55 71.39 87.8 71.39 95.52 71.39 102.92 71.39 180.14 71.39 180.14 59.75 102.92 59.75" style="fill: #00182b; stroke-width: 0px;"/>
      </g>
    </g>
  </g>
</svg>