<svg width="180" height="79" viewBox="0 0 180 79" fill="none" xmlns="http://www.w3.org/2000/svg">
<g clip-path="url(#clip0_1_18)">
<path d="M30.4933 30.331L20.8484 15.2067V30.331H13.4457V0.255005H19.9169L29.5618 15.3792V0.255005H36.9645V30.331H30.4933Z" fill="#313338"/>
<path d="M61.9705 27.2034C59.7696 29.4009 57.2307 30.5822 53.5501 30.5822C49.8694 30.5822 47.3305 29.4009 45.1296 27.2034C41.9559 24.0345 42.0836 19.8119 42.0836 15.2892C42.0836 10.7666 41.9559 6.54396 45.1296 3.37886C47.3305 1.18129 49.8694 0 53.5501 0C57.2307 0 59.7696 1.18129 61.9705 3.37886C65.1442 6.54771 65.0165 10.7703 65.0165 15.2892C65.0165 19.8081 65.1442 24.0345 61.9705 27.2034ZM56.5134 7.89775C55.965 7.17773 54.9059 6.58896 53.5538 6.58896C52.2017 6.58896 51.1426 7.18148 50.5942 7.89775C49.9182 8.78653 49.4938 9.79906 49.4938 15.2892C49.4938 20.7794 49.9182 21.7507 50.5942 22.6395C51.1426 23.3595 52.2017 23.9895 53.5538 23.9895C54.9059 23.9895 55.965 23.3557 56.5134 22.6395C57.1894 21.7507 57.6138 20.7794 57.6138 15.2892C57.6138 9.79906 57.1894 8.78278 56.5134 7.89775Z" fill="#313338"/>
<path d="M82.3194 6.84396V30.331H74.9167V6.84396H67.5141V0.255005H89.7258V6.84396H82.3232H82.3194Z" fill="#313338"/>
<path d="M109.312 30.331V18.4206H101.444V30.331H94.0412V0.255005H101.444V11.8279H109.312V0.255005H116.715V30.331H109.312Z" fill="#313338"/>
<path d="M122.807 30.331V0.255005H130.209V30.331H122.807Z" fill="#313338"/>
<path d="M153.353 30.331L143.708 15.2067V30.331H136.305V0.255005H142.776L152.421 15.3792V0.255005H159.824V30.331H153.353Z" fill="#313338"/>
<path d="M165.281 11.4491V0.255005H172.218V6.4652L165.281 11.4491Z" fill="#313338"/>
<path d="M180 11.0928H0V22.7295H180V11.0928Z" fill="#DFE3E8"/>
<path d="M165.281 2.22757V13.3729L172.188 8.41152V2.22757H165.281Z" fill="#313338"/>
<path d="M36.9682 30.331H30.497L13.9978 4.46639L19.917 0.255005L36.9645 26.9858" fill="#313338"/>
<path d="M53.5501 30.5822C49.8694 30.5822 47.3305 29.4009 45.1296 27.2034C41.9559 24.0345 42.0836 19.8119 42.0836 15.2892C42.0836 10.7666 41.9559 6.54396 45.1296 3.37886C47.3305 1.18129 49.8694 0 53.5501 0V6.58896C52.198 6.58896 51.1388 7.18148 50.5905 7.89775C49.9144 8.78653 49.49 9.79906 49.49 15.2892C49.49 20.7794 49.9144 21.7507 50.5905 22.6395C51.1388 23.3595 52.198 23.9895 53.5501 23.9895V30.5785V30.5822Z" fill="#313338"/>
<path d="M165.281 13.9392V0.255005H172.218V8.95528L165.281 13.9392Z" fill="#313338"/>
<path d="M159.824 30.331H153.353L136.857 4.46639L142.776 0.255005L159.824 26.9858" fill="#313338"/>
<path d="M109.312 30.331V18.4206H101.444V30.331H94.0412V0.255005H101.444V11.8279H109.312V0.255005H116.715V30.331H109.312Z" fill="#313338"/>
<path d="M16.9499 7.64274V0.251259L11.042 0.251259V7.64274H16.9499Z" fill="#313338"/>
<path d="M140.267 7.64274V0.251259L134.36 0.251259V7.64274H140.267Z" fill="#313338"/>
<path d="M28.7168 79V67.0896H20.8484V79H13.4457V48.924H20.8484V60.4969H28.7168V48.924H36.1194V79H28.7168Z" fill="#313338"/>
<path d="M42.2151 79V48.924H62.6917V55.513H49.6177V60.5382H60.7875V67.1271H49.6177V72.4073H62.6917V78.9962H42.2151V79Z" fill="#313338"/>
<path d="M83.1645 79L77.835 67.8059H75.3374V79H67.9347V48.924H79.8631C86.5484 48.924 90.1427 53.6567 90.1427 58.5956C90.1427 62.6945 87.6038 65.2708 85.2339 66.4521L91.7502 78.9962H83.1607L83.1645 79ZM79.5251 55.558H75.3374V61.6407H79.5251C81.557 61.6407 82.7401 60.1631 82.7401 58.5993C82.7401 57.0355 81.557 55.558 79.5251 55.558Z" fill="#313338"/>
<path d="M95.5173 79V48.924H115.994V55.513H102.92V60.5382H114.09V67.1271H102.92V72.4073H115.994V78.9962H95.5173V79Z" fill="#313338"/>
<path d="M180 59.7619H0V71.3985H180V59.7619Z" fill="#DFE3E8"/>
<path d="M75.3374 67.8059V79H67.9347V48.924H75.3374V67.8059Z" fill="#313338"/>
</g>
<defs>
<clipPath id="clip0_1_18">
<rect width="180" height="79" fill="white"/>
</clipPath>
</defs>
</svg>
