<?xml version="1.0" encoding="UTF-8"?>
<svg id="a" data-name="图层 1" xmlns="http://www.w3.org/2000/svg" width="57.17" height="30.08" viewBox="0 0 57.17 30.08">
  <g style="opacity: .87;">
    <rect x="29.49" width="7.39" height="11.15" style="fill: #0e1116; stroke-width: 0px;"/>
    <rect x="13.39" y="22.71" width="7.39" height="7.38" style="fill: #0e1116; stroke-width: 0px;"/>
    <polygon points="42.34 0 42.34 2.2 42.34 4.41 42.34 13.4 49.26 8.41 49.26 4.41 49.26 2.2 49.26 0 42.34 0" style="fill: #0e1116; stroke-width: 0px;"/>
    <polygon points="22.57 4.26 19.86 0 13.39 0 13.39 0 10.95 0 10.95 7.41 13.39 7.41 13.39 11.15 18.34 11.15 29.29 28.31 29.29 28.31 30.42 30.08 36.88 30.08 36.88 22.71 34.34 22.71 22.57 4.26" style="fill: #0e1116; stroke-width: 0px;"/>
  </g>
  <g style="opacity: .1;">
    <polygon points="18.34 11.15 13.39 11.15 0 11.15 0 22.71 13.39 22.71 20.79 22.71 25.71 22.71 18.34 11.15" style="fill: #00182b; stroke-width: 0px;"/>
    <polygon points="45.47 11.15 42.34 13.4 42.34 11.15 36.88 11.15 29.49 11.15 26.96 11.15 34.34 22.71 36.88 22.71 57.17 22.71 57.17 11.15 45.47 11.15" style="fill: #00182b; stroke-width: 0px;"/>
  </g>
</svg>