<?xml version="1.0" encoding="utf-8"?>
<!-- Generator: Adobe Illustrator 28.2.0, SVG Export Plug-In . SVG Version: 6.00 Build 0)  -->
<svg version="1.1" id="a" xmlns="http://www.w3.org/2000/svg" xmlns:xlink="http://www.w3.org/1999/xlink" x="0px" y="0px"
	 viewBox="0 0 180.1 79" style="enable-background:new 0 0 180.1 79;" xml:space="preserve">
<style type="text/css">
	.st0{opacity:0.8;}
	.st1{opacity:0.15;fill:#C5F0FF;enable-background:new    ;}
	.st2{opacity:0.82;}
	.st3{fill:#FDFEFF;}
</style>
<g class="st0">
	<rect x="101.4" y="11.1" class="st1" width="7.9" height="0.7"/>
	<rect x="101.4" y="18.4" class="st1" width="7.9" height="4.3"/>
	<path class="st1" d="M37,22.7h5.7c-0.6-2.3-0.5-4.8-0.5-7.4c0-1.4,0-2.8,0.1-4.2H26.8l7.4,11.6H37L37,22.7z"/>
	<path class="st1" d="M82.3,22.7H94V11.1H49.6c-0.1,1-0.1,2.3-0.1,4.2c0,5.5,0.4,6.5,1.1,7.4c0,0,0,0.1,0.1,0.1H82.3z"/>
	<polygon class="st1" points="169.2,11.1 165.3,13.9 165.3,13.4 165.3,11.4 165.3,11.1 159.8,11.1 152.4,11.1 149.7,11.1 
		157.1,22.7 159.8,22.7 180,22.7 180,11.1 	"/>
	<polygon class="st1" points="18.2,11.1 13.4,11.1 0,11.1 0,22.7 13.4,22.7 20.9,22.7 25.6,22.7 25.6,22.7 	"/>
	<polygon class="st1" points="136.3,11.1 130.2,11.1 122.8,11.1 116.7,11.1 116.7,22.7 122.8,22.7 130.2,22.7 136.3,22.7 
		143.7,22.7 148.5,22.7 141.1,11.1 	"/>
</g>
<g class="st2">
	<polygon class="st3" points="37,22.7 34.2,22.7 26.8,11.1 19.9,0.3 19.9,0.3 19.9,0.3 17,0.3 17,0.2 11,0.2 11,7.6 13.4,7.6 
		13.4,11.1 18.2,11.1 25.6,22.7 25.6,22.7 30.5,30.3 30.5,30.3 37,30.3 37,30.3 37,27 	"/>
	<rect x="13.4" y="22.7" class="st3" width="7.4" height="7.6"/>
	<rect x="29.6" y="0.3" class="st3" width="7.4" height="10.8"/>
	<path class="st3" d="M50.6,7.9c0.5-0.7,1.6-1.3,3-1.3s2.4,0.6,3,1.3c0.5,0.6,0.8,1.2,1,3.2h7.5c-0.2-2.9-0.8-5.6-3-7.7
		C59.8,1.2,57.2,0,53.5,0s-6.2,1.2-8.4,3.4c-2.2,2.2-2.8,4.8-3,7.7c-0.1,1.4-0.1,2.8-0.1,4.2c0,2.6,0,5.2,0.5,7.4
		c0.4,1.6,1.2,3.1,2.5,4.5c2.2,2.2,4.7,3.4,8.4,3.4s6.2-1.2,8.4-3.4c1.3-1.3,2.1-2.8,2.5-4.5h-8c-0.6,0.7-1.6,1.3-2.9,1.3
		s-2.3-0.6-2.9-1.3c0,0,0-0.1-0.1-0.1c-0.7-0.9-1.1-1.9-1.1-7.4c0-1.9,0-3.2,0.1-4.2C49.8,9.1,50.1,8.5,50.6,7.9L50.6,7.9z"/>
	<polygon class="st3" points="74.9,11.1 82.3,11.1 82.3,6.8 82.3,6.8 89.7,6.8 89.7,0.3 67.5,0.3 67.5,6.8 74.9,6.8 	"/>
	<rect x="74.9" y="22.7" class="st3" width="7.4" height="7.6"/>
	<rect x="122.8" y="0.3" class="st3" width="7.4" height="10.8"/>
	<rect x="122.8" y="22.7" class="st3" width="7.4" height="7.6"/>
	<rect x="152.4" y="0.3" class="st3" width="7.4" height="10.8"/>
	<rect x="136.3" y="22.7" class="st3" width="7.4" height="7.6"/>
	<polygon class="st3" points="165.3,0.3 165.3,2.2 165.3,11.1 165.3,11.4 165.3,13.4 165.3,13.9 169.2,11.1 172.2,9 172.2,6.5 
		172.2,0.3 	"/>
	<polygon class="st3" points="149.7,11.1 142.8,0.3 140.3,0.3 140.3,0.2 134.4,0.2 134.4,7.6 136.3,7.6 136.3,11.1 141.1,11.1 
		148.5,22.7 153.4,30.3 159.8,30.3 159.8,27 159.8,22.7 157.1,22.7 	"/>
	<polygon class="st3" points="109.3,11.1 109.3,11.8 101.4,11.8 101.4,11.1 101.4,0.3 94,0.3 94,11.1 94,22.7 94,30.3 101.4,30.3 
		101.4,22.7 101.4,18.4 109.3,18.4 109.3,22.7 109.3,30.3 116.7,30.3 116.7,22.7 116.7,11.1 116.7,0.3 109.3,0.3 	"/>
	<rect x="28.7" y="48.9" class="st3" width="7.4" height="10.8"/>
	<rect x="13.4" y="48.9" class="st3" width="7.4" height="10.8"/>
	<rect x="28.7" y="71.4" class="st3" width="7.4" height="7.6"/>
	<rect x="13.4" y="71.4" class="st3" width="7.4" height="7.6"/>
	<polygon class="st3" points="42.2,59.8 49.6,59.8 49.6,55.5 62.7,55.5 62.7,48.9 42.2,48.9 	"/>
	<polygon class="st3" points="49.6,71.4 42.2,71.4 42.2,79 62.7,79 62.7,72.4 49.6,72.4 	"/>
	<polygon class="st3" points="87.8,71.4 79.6,71.4 83.2,79 91.8,79 	"/>
	<polygon class="st3" points="83.2,79 83.2,79 83.2,79 	"/>
	<path class="st3" d="M82.7,58.6c0,0.4-0.1,0.8-0.2,1.2h7.6c0.1-0.4,0.1-0.8,0.1-1.2c0-4.9-3.6-9.7-10.3-9.7H67.9V79h7.4V55.6h4.2
		C81.6,55.6,82.8,57,82.7,58.6L82.7,58.6z"/>
	<polygon class="st3" points="95.5,59.8 102.9,59.8 102.9,55.5 116,55.5 116,48.9 95.5,48.9 	"/>
	<polygon class="st3" points="102.9,71.4 95.5,71.4 95.5,79 116,79 116,72.4 102.9,72.4 	"/>
</g>
<g class="st0">
	<polygon class="st1" points="49.6,71.4 67.9,71.4 67.9,59.8 49.6,59.8 42.2,59.8 36.1,59.8 28.7,59.8 20.9,59.8 13.4,59.8 0,59.8 
		0,71.4 13.4,71.4 20.9,71.4 28.7,71.4 36.1,71.4 42.2,71.4 	"/>
	<polygon class="st1" points="102.9,59.8 95.5,59.8 90.1,59.8 82.5,59.8 75.3,59.8 75.3,67.8 75.3,71.4 79.6,71.4 87.8,71.4 
		95.5,71.4 102.9,71.4 180.1,71.4 180.1,59.8 	"/>
</g>
</svg>
